<?xml version="1.0" encoding="UTF-8"?>
<svg version="1.1" viewBox="0 0 1600 1600" width="1280" height="1280" xmlns="http://www.w3.org/2000/svg">
<path transform="translate(0)" d="m0 0h1600v1600h-1600v-1600z" fill="#00000"/>
<path transform="translate(570 294)" d="m0 0c0.865 8.06e-4 1.73 0.00161 2.62 0.00244 6.51 0.0597 13 0.45 19.4 1.06 0.839 0.0784 1.68 0.157 2.54 0.238 5.86 0.606 11.6 1.67 17.3 2.89 1.03 0.197 2.07 0.394 3.13 0.598 1.2 0.23 1.2 0.23 2.43 0.465 0.826 0.156 1.65 0.312 2.5 0.473 1.93 0.465 1.93 0.465 2.93 1.46 3.18 0.446 6.35 0.822 9.54 1.16 5.25 0.625 5.25 0.625 7.46 2.84 1.84 0.547 3.69 1.02 5.56 1.44 23.9 5.75 48 18.7 67.4 33.6 0.821 0.626 1.64 1.25 2.49 1.9 14.9 11.6 29.4 25.1 39.5 41.1 0.383 0.596 0.765 1.19 1.16 1.81 5.28 8.22 10.3 16.5 14.8 25.2 0.625 1.15 0.625 1.15 1.26 2.33 12.6 24 19.5 52.5 23.2 79.2 0.401 2.76 0.91 5.43 1.49 8.16 1.11 5.46 1.63 10.9 2.07 16.4 0.156 1.89 0.313 3.78 0.473 5.67 0.0658 0.821 0.132 1.64 0.199 2.49 0.203 2.03 0.468 4.05 0.761 6.07 3.95 28.1 3.32 57.2 1.57 85.4-0.0651 1.05-0.0651 1.05-0.131 2.12-0.732 11.5-0.732 11.5-1.93 15.1-0.0474 1.36-0.045 2.72-0.00781 4.08 0.054 4.94-0.343 9.76-0.867 14.7-0.0786 0.824-0.157 1.65-0.238 2.5-0.648 6.19-0.648 6.19-1.96 9.27-1.11 2.97-0.928 5.53-0.857 8.66-0.163 6.3-1.4 12.5-2.39 18.8-0.231 1.48-0.462 2.96-0.693 4.44-0.453 2.9-0.91 5.79-1.37 8.69-0.528 3.33-1.04 6.66-1.55 9.99-0.252 1.61-0.504 3.21-0.758 4.82-0.107 0.705-0.214 1.41-0.323 2.14-0.541 3.32-1.08 5.13-2.99 7.99-0.258 2.05-0.505 4.11-0.696 6.17-0.637 5.92-1.74 11.8-2.74 17.6-0.219 1.32-0.439 2.64-0.658 3.97-0.322 1.88-0.322 1.88-0.65 3.8-0.193 1.14-0.385 2.27-0.584 3.44-0.603 2.67-1.43 4.56-2.67 6.97-0.234 2.11-0.464 4.22-0.664 6.33-0.962 7.65-3.14 15.1-5.34 22.5-1.9 6.49-3.17 13-4.34 19.6-0.5 2.72-1.06 5.34-1.78 8-0.688 2.8-1.07 5.22-1.31 8.06-0.289 3.03-0.835 5.5-2 8.31-1.73 4.23-2.38 8.46-3.04 13-0.402 2.46-0.875 4.83-1.43 7.26-1.39 6.12-2.48 12.3-3.6 18.5-3.13 17.2-3.13 17.2-5.02 24.5-0.866 3.61-1.24 7.32-1.73 11-0.263 1.95-0.526 3.91-0.789 5.86-0.223 1.66-0.223 1.66-0.45 3.35-0.924 6.86-1.86 13.7-2.8 20.6-0.225 1.64-0.449 3.29-0.671 4.93-0.315 2.33-0.635 4.66-0.955 6.99-0.142 1.06-0.142 1.06-0.287 2.14-0.685 4.93-0.685 4.93-1.8 7.15-0.047 1.62-0.0384 3.25-9.77e-4 4.87 0.0554 6.12-0.445 12.1-0.983 18.2-1.19 14.8-1.32 29.5-1.28 44.3 0.0114 3.63 0.00458 7.25-0.00687 10.9-0.0456 17 0.379 33.9 2.27 50.8 0.0844 0.759 0.169 1.52 0.256 2.3 0.536 4.66 1.18 9.31 1.87 14 0.101 0.69 0.203 1.38 0.308 2.09 1.76 11.9 4.09 23.6 6.69 35.3 0.17 0.769 0.34 1.54 0.515 2.33 1.68 7.54 3.39 14.9 6.36 22 0.471 1.26 0.935 2.52 1.39 3.79 5.23 15.8 5.23 15.8 13.3 30 2.8 3.86 4.04 7.63 5.31 12.2-4.72-1.4-8.83-3.41-13.1-5.88-0.599-0.339-1.2-0.678-1.81-1.03-3.65-2.1-6.89-4.42-10.1-7.1-1.83-1.36-3.66-2.71-5.5-4.06-5.68-4.25-11.1-8.74-16.5-13.4-2.05-1.75-4.1-3.48-6.19-5.18-2.27-1.93-4.13-3.74-6-6.02-2.94-3.46-6.07-6.64-9.31-9.81-5.23-5.14-10.1-10.5-13.8-16.9-2.59-4.24-5.64-8.13-8.63-12.1-2.79-3.74-5.03-7.38-7.03-11.6-0.773-1.48-1.55-2.95-2.34-4.43-0.423-0.797-0.847-1.59-1.28-2.42-0.871-1.64-1.74-3.27-2.62-4.91-20.8-39.3-27.7-85.4-30.8-129-0.0868-1.14-0.0868-1.14-0.175-2.31-3.91-52.3 0.799-106 9.93-157 0.982-5.56 1.83-11.1 2.65-16.7 1.48-10.1 3.24-20.1 5.08-30.1 0.524-2.87 1.04-5.73 1.56-8.6 4.37-24.1 4.37-24.1 7.01-31.9 1.13-3.42 1.54-6.68 1.95-10.3 0.525-4.53 1.25-8.84 2.41-13.2 1.35-5.4 2.41-10.9 3.53-16.3 0.267-1.29 0.534-2.58 0.81-3.91 1.65-8.04 3.2-16.1 4.51-24.2 0.541-3.14 1.29-6.2 2.07-9.3 2.34-10 3.71-20.2 5.21-30.4 0.521-3.52 1.06-7.04 1.59-10.6 3.49-23.3 5.38-46.2 4.87-69.8-0.0087-0.762-0.0174-1.52-0.0264-2.31-0.419-31.7-8.21-64.7-23-92.7-0.483-0.958-0.967-1.92-1.46-2.9-3.78-7.29-8.49-13.6-13.5-20.1-0.899-1.21-0.899-1.21-1.82-2.44-7.08-9.45-15.5-18.2-26.2-23.6v-2c-0.804-0.227-1.61-0.454-2.44-0.688-4.48-1.65-8.42-3.95-12.6-6.31-15.3-8.09-31.9-11.8-49-13-0.771-0.0617-1.54-0.123-2.34-0.187-11.2-0.877-22.2-0.758-33.4 0.0342-2.18 0.148-4.37 0.267-6.55 0.375-12.2 0.623-23.6 2.26-35.3 5.77-3.1 0.915-6.2 1.73-9.34 2.5-16 3.94-31.9 8.13-47.1 14.5-1.12 0.423-1.12 0.423-2.27 0.855-7.47 2.83-14.5 6.46-21.6 10.1-2.07 1.04-4.15 2.07-6.24 3.08-7.65 3.73-14.9 7.71-22.1 12.3-2.77 1.66-2.77 1.66-5.57 2.7-1.09 0.476-1.09 0.476-2.2 0.961-0.33 0.99-0.66 1.98-1 3-2.06 1.38-2.06 1.38-5 3-4.5 2.65-8.41 5.17-12 9-1.03 0.864-2.08 1.72-3.12 2.56-2.98 2.3-2.98 2.3-4.88 5.44h-3c-0.227 0.557-0.454 1.11-0.688 1.69-1.69 2.97-3.84 4.96-6.31 7.31l-2.5 2.5c-1.64 1.64-3.28 3.26-4.94 4.88-2.48 2.54-4.77 5.16-7.04 7.88-1.53 1.75-1.53 1.75-3.46 3.62-2.31 2.37-4.2 4.87-6.13 7.56-0.672 0.927-1.34 1.85-2.04 2.81-1.94 2.72-1.94 2.72-3.52 5.6l-1.38 2.15h-2c-0.248 0.701-0.495 1.4-0.75 2.12-1.42 3.26-3.26 5.92-5.25 8.88-0.868 1.51-1.72 3.03-2.56 4.56-0.42 0.763-0.84 1.53-1.27 2.31-0.384 0.701-0.768 1.4-1.16 2.12-1.69 3.06-1.69 3.06-3 5h-2c-0.103 0.887-0.206 1.77-0.312 2.69-0.716 3.45-1.86 5.34-3.69 8.31-0.819 1.7-1.61 3.4-2.38 5.12-1.25 2.82-2.5 5.63-3.85 8.4-3.48 7.27-5.98 14.8-8.45 22.4-0.725 2.25-1.48 4.4-2.38 6.59-1.3 3.36-2.11 6.83-2.95 10.3-0.332 1.37-0.665 2.75-1 4.12-0.163 0.671-0.326 1.34-0.494 2.03-0.483 1.88-1.04 3.75-1.6 5.61-0.855 3.16-1.27 5.98-1.47 9.23-0.228 3.41-0.519 6.78-0.953 10.2-0.691 6.12-0.676 12.2-0.672 18.4 8.06e-4 1.26 0.00161 2.52 0.00244 3.81 0.056 8.78 0.408 17.5 1.06 26.2 0.118 1.63 0.118 1.63 0.238 3.29 0.406 4.87 1.04 8.68 2.89 13.2 0.125 3.31 0.125 3.31 0 6-2.34-0.637-2.34-0.637-5-2-1.44-2.58-1.44-2.58-2.56-5.81-0.412-1.18-0.825-2.36-1.25-3.57-0.588-1.79-0.588-1.79-1.19-3.62-0.351-1.03-0.701-2.06-1.06-3.12-19.4-59.6-8.04-132 19.1-188 0.568-1.18 1.14-2.35 1.72-3.57 7.49-15.3 16-29.8 26.2-43.5 1.52-2.09 3-4.18 4.45-6.31 0.393-0.577 0.785-1.15 1.19-1.75 1.1-1.63 2.2-3.27 3.3-4.9 2.19-2.96 4.55-5.37 7.18-7.95 2.04-2.3 4.02-4.65 6-7 3.52-4.18 7.08-8.18 11-12l7-7c0.788-0.795 1.58-1.59 2.39-2.41 6.24-6.19 12.7-12.2 19.9-17.2 1.83-1.34 1.83-1.34 3.51-3.17 2.99-2.91 6.3-5.25 9.68-7.68 1.31-0.947 2.62-1.89 3.93-2.84 0.622-0.45 1.24-0.9 1.89-1.36 1.54-1.15 3.04-2.36 4.53-3.57 2.21-1.72 2.21-1.72 5.21-2.72 1.01-0.994 2-2 3-3 3.58-2.46 7.3-4.72 11-7 1.27-0.781 1.27-0.781 2.56-1.58 14.9-9.06 14.9-9.06 22.4-12.1 2.92-1.04 2.92-1.04 4.31-2.71 2.33-2.2 4.84-3.23 7.75-4.54 1.16-0.523 2.33-1.05 3.53-1.59 3.63-1.57 7.28-3.05 11-4.48 2.64-1.07 5.19-2.28 7.76-3.5 5.06-2.34 10.2-3.99 15.5-5.51 3.22-0.961 3.22-0.961 6.54-2.46 3.78-1.61 7.53-2.84 11.5-3.97 1.1-0.32 1.1-0.32 2.23-0.646 7.9-2.26 15.9-4.18 23.9-5.92 0.653-0.142 1.31-0.284 1.98-0.43 9.83-2.1 19.6-3.25 29.6-4.14 2.52-0.227 4.92-0.524 7.42-0.973 4.03-0.617 7.97-0.649 12-0.645z" fill="#F07D0E"/>
<path transform="translate(821,376)" d="m0 0c4.6 0.576 8.14 2.55 12.1 4.88 0.612 0.352 1.22 0.704 1.85 1.07 3.18 1.85 6.18 3.8 9.08 6.06 1.11 0.65 1.11 0.65 2.25 1.31 2.99 1.83 5.71 3.89 8.5 6.01 2.44 1.81 4.93 3.53 7.44 5.24 3.66 2.55 6.77 5.15 9.81 8.44 4.36 4.47 8.71 8.75 13.7 12.6 1.35 1.42 1.35 1.42 1.85 3.53 0.164 0.624 0.327 1.25 0.496 1.89 1.49 0.495 1.49 0.495 3 1 1.88 2.01 1.88 2.01 4 4.69 0.79 0.993 1.58 1.99 2.39 3.01 0.421 0.535 0.842 1.07 1.28 1.62 1.37 1.74 2.76 3.46 4.15 5.17 5.29 6.57 10.1 13.1 14.2 20.5 0.589 0.986 1.18 1.97 1.79 2.99 4.22 7.13 7.99 14.4 11.6 21.9 0.429 0.88 0.858 1.76 1.3 2.67 1.86 3.93 3.49 7.67 4.49 11.9 0.636 3.63 0.636 3.63 2.84 6.55 0.708 2.69 1.35 5.35 1.94 8.06 1.27 5.65 2.66 11.2 4.41 16.7 0.925 3.13 1.59 6.31 2.23 9.51 0.279 1.74 0.279 1.74 1.43 2.71 0.274 1.72 0.491 3.44 0.684 5.17 0.185 1.59 0.185 1.59 0.373 3.2 0.252 2.23 0.502 4.47 0.75 6.7 0.124 1.06 0.249 2.12 0.377 3.22 0.109 0.973 0.218 1.95 0.33 2.95 0.497 2.81 1.42 5.11 2.49 7.75 0.395 2.35 0.395 2.35 0.598 4.77 0.119 1.34 0.119 1.34 0.24 2.7 0.111 1.38 0.111 1.38 0.225 2.79 0.157 1.82 0.314 3.64 0.473 5.45 0.0762 0.903 0.152 1.81 0.231 2.74 0.202 2.21 0.454 4.41 0.73 6.61 1.73 15.6 1.66 31.3 1.63 47-0.00534 3.64-3.57e-5 7.29 0.00635 10.9 0.00703 20-0.476 39.9-2.57 59.9-0.122 1.24-0.244 2.49-0.369 3.77-0.532 5.2-1.1 10.3-2.23 15.4-0.822 3.81-1.18 7.5-1.41 11.4-0.514 8.31-1.77 16.5-3.09 24.7-0.413 2.58-0.813 5.17-1.21 7.75-0.262 1.66-0.524 3.31-0.787 4.96-0.118 0.767-0.236 1.53-0.357 2.32-0.597 3.66-1.38 6.63-3.12 9.89 0.0127 1.84 0.0304 3.67 0.0771 5.51-0.168 5.42-1.43 10.7-2.45 16.1-0.222 1.19-0.443 2.39-0.672 3.62-1.81 9.6-1.81 9.6-3.04 13.7-1.04 3.56-1.62 7.11-2.16 10.8-1.7 10.7-3.97 21.3-6.2 31.9-1.02 4.89-2.02 9.77-2.98 14.7-0.223 1.13-0.446 2.27-0.676 3.44-0.418 2.14-0.833 4.27-1.25 6.41-0.738 3.76-1.45 7.38-2.7 11-1.38 4.26-1.82 8.57-2.39 13-0.967 7.2-2.13 14.2-3.91 21.2-0.695 2.88-1.17 5.76-1.65 8.69-4 24-4 24-4.54 27.1-0.528 3.29-0.758 6.53-0.959 9.86-0.0722 1.18-0.144 2.35-0.219 3.56-0.0402 0.675-0.0804 1.35-0.122 2.04-0.119 1.79-0.258 3.58-0.407 5.36-0.795 9.85-0.955 19.7-0.94 29.5 0.0014 1.26 0.0014 1.26 0.00284 2.54 0.0988 40.9 5.56 88.6 33.5 121 1.76 2.31 2.71 4.46 3.66 7.18h2c1.69 1.64 1.69 1.64 3.56 3.81 0.62 0.708 1.24 1.42 1.88 2.14 1.56 2.04 1.56 2.04 2.56 5.04 1.32 0.698 2.65 1.36 4 2 1.71 1.36 3.4 2.76 5.06 4.19 18.5 15.3 43.6 26.6 67.9 27.7 2.03 0.141 2.03 0.141 5.03 1.14 2.51 0.109 4.99 0.164 7.5 0.168 0.744 0.00414 1.49 0.00829 2.25 0.0126 2.42 0.00969 4.83 0.00966 7.25 0.00697 1.23 9.06e-5 1.23 9.06e-5 2.48 1.83e-4 14.3-0.0152 28.3-0.479 42.3-3.7 2.7-0.592 5.41-1.04 8.14-1.47 8.48-1.36 16.6-3.42 24.9-5.83 2.9-0.845 5.79-1.54 8.75-2.15 3.62-0.78 6.95-1.87 10.4-3.23 2.26-0.88 4.55-1.67 6.85-2.46 8.96-3.06 17.7-6.22 26.2-10.4 1.29-0.592 2.58-1.18 3.88-1.77 17.4-7.96 33.3-17.6 48.9-28.7 2.25-1.54 2.25-1.54 4.79-2.99 2.56-1.61 4.37-3.39 6.46-5.55 1.46-1.17 2.94-2.31 4.44-3.44 3.46-2.65 6.52-5.44 9.56-8.56 0.949-0.763 1.9-1.53 2.88-2.31 3.27-2.65 5.86-5.77 8.51-9.02 1.61-1.67 1.61-1.67 4.61-2.67 0.289-0.742 0.577-1.49 0.875-2.25 1.14-2.79 2.4-4.08 4.57-6.1 2.87-3.04 5.18-6.52 7.59-9.93 1.28-1.78 2.61-3.52 3.98-5.23 7.5-9.4 13.2-20 19-30.5 0.345-0.627 0.69-1.25 1.05-1.9 2.91-5.29 5.76-10.5 7.95-16.1 0.765-1.63 1.54-3.25 2.31-4.88 2.64-5.75 4.62-11.7 6.56-17.7 0.877-2.69 1.8-5.32 2.82-7.96 1.3-3.47 2.32-6.93 3.31-10.5 0.33-0.887 0.66-1.77 1-2.69 1.22-4.03 1.82-8.05 2.44-12.2 0.562-3.1 0.562-3.1 1.55-6.29 1.3-4.9 1.73-9.7 2.13-14.7 0.0835-1.03 0.167-2.05 0.253-3.11 1.41-18.4 1.32-37.8-2.38-56-0.0646-1.77-0.0861-3.54-0.0625-5.31 0.0135-1.32 0.0135-1.32 0.0273-2.68 0.0174-0.996 0.0174-0.996 0.0352-2.01 2.86 1.03 3.86 1.75 5.38 4.43 2.67 6.78 4.92 13.5 6.62 20.6 0.268 1.1 0.536 2.2 0.812 3.33 2.2 9.26 2.2 9.26 2.81 13.9 0.0798 2.66 0.0798 2.66 1.38 3.75 0.23 2.15 0.396 4.3 0.535 6.46 0.043 0.658 0.086 1.32 0.13 1.99 0.0904 1.4 0.179 2.81 0.265 4.21 0.13 2.11 0.268 4.21 0.408 6.31 0.824 12.8 0.73 25.3-0.213 38l-0.238 3.64c-0.0838 1.15-0.168 2.3-0.254 3.49-0.0733 1.03-0.147 2.07-0.222 3.13-0.403 2.69-1.17 4.36-2.41 6.74 0 1.84 0.00632 3.68 0.0547 5.52-0.129 5.88-0.776 12.4-3.04 17.9-1.01 2.62-1.5 4.97-1.93 7.74-1.01 5.88-2.66 11.4-4.53 17.1-0.45 1.4-0.45 1.4-0.908 2.83-2.45 7.56-5.03 14.9-8.65 22-1.87 4.08-3.66 8.19-5.39 12.3-1.59 3.72-3.44 7.29-5.36 10.9-0.349 0.649-0.699 1.3-1.06 1.97-4.78 8.84-9.72 17.4-15.6 25.6-1.6 2.21-1.6 2.21-2.87 4.5-2.49 4.02-5.42 7.66-8.34 11.4-0.942 1.2-0.942 1.2-1.9 2.43-25.6 32.7-25.6 32.7-32.5 34.9-0.33 0.99-0.66 1.98-1 3-1.64 1.61-1.64 1.61-3.69 3.31-2.7 2.28-5.24 4.58-7.69 7.12-2.62 2.56-2.62 2.56-4.62 2.56-0.33 0.99-0.66 1.98-1 3-1.33 0.333-2.67 0.667-4 1-0.33 0.99-0.66 1.98-1 3-1.93 1.46-1.93 1.46-4.31 2.94-3.31 2.12-5.95 4.23-8.69 7.06-1.4 0.94-2.79 1.88-4.2 2.8-1.98 1.32-3.92 2.69-5.86 4.07-1.07 0.766-1.07 0.766-2.17 1.55-1.47 1.05-2.94 2.1-4.41 3.16-4.34 3.09-8.71 5.83-13.4 8.42-2.13 1.3-4.26 2.62-6.38 3.94-37.3 23-85.2 45.4-130 46.8-3.25 0.298-5.9 1.22-8.98 2.27-18 2.63-37 1.46-55-1-3.9-0.5-7.8-0.977-11.7-1.43-6.47-0.787-12.6-1.74-18.8-3.79-2.98-0.927-5.98-1.61-9.02-2.29-7.72-1.75-15.1-3.55-22.1-7.29-2.56-1.28-5.18-2.38-7.82-3.48-13.5-5.66-25.6-13.3-37.7-21.4-1.17-0.783-1.17-0.783-2.37-1.58-4.49-3.08-8.36-6.35-12.1-10.3-1.38-1.52-1.38-1.52-3.41-2.41v-2h-2v-2c-0.99-0.33-1.98-0.66-3-1-2.55-2.47-4.74-5.27-7-8-0.633-0.758-1.27-1.52-1.92-2.3-7.88-9.62-15-19.9-21.1-30.7-0.478-0.839-0.478-0.839-0.965-1.7-4.19-7.4-7.76-14.6-10.2-22.7-0.799-2.75-0.799-2.75-2.29-6-7.23-17.2-10.4-36.2-13.9-54.4-0.382-1.99-0.77-3.97-1.17-5.96-3.57-17.9-5.07-36-6.44-54.2-0.0972-1.24-0.194-2.48-0.294-3.75-0.708-9.59-0.945-19.1-0.956-28.7-0.00167-0.806-0.00334-1.61-0.00507-2.44-0.00233-19.1 1.43-38.1 3.26-57.1 0.116-1.24 0.116-1.24 0.235-2.5 0.24-2.53 0.489-5.06 0.742-7.59 0.108-1.14 0.108-1.14 0.219-2.3 0.469-4.56 1.26-8.93 2.3-13.4 0.81-3.58 1.41-7.18 2.01-10.8 0.13-0.774 0.261-1.55 0.395-2.35 0.272-1.62 0.542-3.24 0.812-4.86 0.412-2.47 0.831-4.95 1.25-7.42 0.265-1.58 0.529-3.17 0.793-4.75 0.125-0.733 0.25-1.47 0.379-2.22 0.601-3.66 0.901-7.12 0.863-10.8 0.295-0.722 0.59-1.44 0.895-2.19 1.63-4.15 2.11-8.42 2.79-12.8 1.74-10.6 4.14-21 6.73-31.5 1.99-8.03 3.82-16.1 5.43-24.2 1.06-5.27 1.06-5.27 2.15-6.37 0.645-2.98 1.24-5.95 1.81-8.94 1.39-7.1 2.82-14.2 4.38-21.2 0.167-0.771 0.333-1.54 0.505-2.34 1.19-5.36 1.19-5.36 2.31-6.47 0.332-1.49 0.611-2.99 0.867-4.49 0.162-0.928 0.324-1.86 0.49-2.81 0.171-0.994 0.342-1.99 0.518-3.01 1.22-6.92 2.54-13.7 4.34-20.5 1.06-4.28 1.92-8.59 2.78-12.9 0.154-0.774 0.308-1.55 0.467-2.34 0.519-2.63 1.03-5.27 1.53-7.91 0.233-1.2 0.467-2.41 0.707-3.65 1.8-9.36 3.37-18.7 4.73-28.2 0.105-0.724 0.21-1.45 0.318-2.19 2.75-19.2 4.45-38.5 6.06-57.9 0.154-1.8 0.326-3.6 0.501-5.4 4.64-50.5 0.808-104-9.32-154-0.135-0.67-0.271-1.34-0.41-2.03-1.36-6.7-2.77-13.4-4.29-20-0.203-0.886-0.405-1.77-0.614-2.69-0.64-2.5-0.64-2.5-2.68-5.25-0.611-1.96-1.16-3.95-1.69-5.94-3.95-14.1-8.91-27.6-15-40.9-0.463-1.02-0.927-2.03-1.4-3.08-2.32-4.99-4.79-9.52-7.91-14-0.75-2.88-0.75-2.88-1-5z" fill="#00C3F0"/>
<path transform="translate(1188,796)" d="m0 0c0.87 0.0741 1.74 0.148 2.64 0.225 2.42 0.216 4.83 0.455 7.24 0.713 0.702 0.0744 1.4 0.149 2.13 0.225 4.75 0.591 4.75 0.591 7 2.84 2.05 0.343 4.12 0.6 6.19 0.812 11.2 1.46 21.7 5.26 31.8 10.2 1.14 0.534 1.14 0.534 2.31 1.08 29.9 14.3 51.1 38 64.7 67.9 0.482 1.04 0.964 2.08 1.46 3.14 2.92 6.61 4.85 13.3 6.55 20.3 1.03 3.69 2.48 7.03 3.99 10.5 0.821 3.47 1.21 6.86 1.46 10.4 0.117 1.51 0.117 1.51 0.236 3.05 0.158 2.11 0.312 4.22 0.461 6.34 0.119 1.51 0.119 1.51 0.24 3.05 0.1 1.37 0.1 1.37 0.203 2.78 0.271 2.63 0.271 2.63 2.39 5.37 0.259 1.9 0.259 1.9 0.266 4.02 0.00258 0.775 0.00516 1.55 0.00781 2.35-0.00773 0.806-0.0155 1.61-0.0234 2.44 0.00773 0.795 0.0155 1.59 0.0234 2.41-0.0157 4.74-0.738 8.28-2.27 12.8-0.479 3.43-0.736 6.86-1 10.3-1.33 17.2-1.33 17.2-5 22.7-0.656 2.5-1.25 4.98-1.81 7.5-1.64 6.95-4 13.1-7.19 19.5-0.632 1.43-1.26 2.87-1.88 4.31-5.29 11.9-11.4 23.5-18.1 34.7-0.516 0.928-1.03 1.86-1.56 2.81-0.712 1.08-0.712 1.08-1.44 2.19h-2c-0.268 0.969-0.536 1.94-0.812 2.94-0.392 1.01-0.784 2.02-1.19 3.06-0.99 0.33-1.98 0.66-3 1-0.374 1.32-0.702 2.66-1 4-1.18 1.76-1.18 1.76-2.66 3.54-0.543 0.659-1.09 1.32-1.65 2-0.58 0.69-1.16 1.38-1.76 2.09-1.19 1.43-2.37 2.86-3.55 4.29-0.578 0.695-1.16 1.39-1.75 2.11-2.79 3.39-5.47 6.87-8.14 10.4-0.491 0.536-0.982 1.07-1.49 1.62h-2c-0.268 0.639-0.536 1.28-0.812 1.94-1.19 2.06-1.19 2.06-4.19 3.06-0.33 0.66-0.66 1.32-1 2-0.33 0.66-0.66 1.32-1 2-0.99 0.33-1.98 0.66-3 1-0.309 0.66-0.619 1.32-0.938 2-0.351 0.66-0.701 1.32-1.06 2-1.33 0.333-2.67 0.667-4 1-0.33 0.66-0.66 1.32-1 2-0.33 0.66-0.66 1.32-1 2-1.33 0.333-2.67 0.667-4 1-0.268 0.593-0.536 1.19-0.812 1.8-1.56 2.9-3.48 4.11-6.19 5.95-0.887 0.614-1.77 1.23-2.69 1.86-2.31 1.39-2.31 1.39-4.31 1.39-0.33 0.99-0.66 1.98-1 3-1.61 0.975-3.24 1.94-4.9 2.83-3.09 1.72-5.97 3.72-8.89 5.71-14.9 9.87-31.6 17.5-48.3 23.7-2.69 1.02-5.32 2.15-7.97 3.28-4.27 1.79-8.45 3.25-12.9 4.44-1.42 0.471-2.84 0.951-4.25 1.44-8.11 2.73-16.4 4.78-24.8 6.56 1.38-1.5 1.38-1.5 3-3h2v-2c2.01-1.62 2.01-1.62 4.69-3.44 0.87-0.597 1.74-1.19 2.64-1.81 1.71-1.12 3.44-2.21 5.2-3.26 2.57-1.55 5.02-3.21 7.48-4.93 0.825-0.576 1.65-1.15 2.5-1.75 2.57-1.86 5.02-3.83 7.5-5.82 2.75-2.02 5.51-4.01 8.28-6 3.54-2.6 6.92-5.21 10-8.31 2.19-2.19 4.4-4.18 6.75-6.19 2.31-1.99 4.16-3.78 6.06-6.19 1.88-2.31 1.88-2.31 4.81-4.19 3.23-2.24 4.78-4.27 6.92-7.47 1.48-2.15 3.27-3.83 5.14-5.65 3.8-4.13 7.21-8.11 10-13 0.463-0.456 0.926-0.913 1.4-1.38 5.05-5.12 8.52-12.1 12.2-18.2 1.29-2.16 2.64-4.28 4-6.4 13-20.7 22.3-47.6 24.4-72 0.33-0.66 0.66-1.32 1-2 0.535-4.99 0.766-9.99 1-15 0.0554-1.13 0.111-2.25 0.168-3.41 0.768-31.8-6.12-65.7-25.1-91.7-0.435-0.602-0.871-1.2-1.32-1.82-4.39-6.02-8.74-11.5-14.7-16.1-1.81-1.62-1.81-1.62-3-3v-2c-0.748-0.267-1.5-0.534-2.27-0.809-2.68-1.17-4.3-2.35-6.48-4.25-31.3-25.1-74.2-28.5-113-26.6-0.692 0.0307-1.38 0.0614-2.1 0.093-3.91 0.235-6.88 1.03-10.5 2.53-3.37 0.581-6.74 1.01-10.1 1.44-2.98 0.309-2.98 0.309-4.86 2.56-1.78 0.5-3.57 0.927-5.38 1.31-6.55 1.55-12.5 3.95-18.6 6.69-0.862 0.376-1.72 0.753-2.61 1.14-4.28 1.87-4.28 1.87-8.45 3.97-1.94 0.887-1.94 0.887-4.94 0.887 0.619-0.743 1.24-1.49 1.88-2.25 2.1-2.51 2.1-2.51 3.02-4.7 1.31-2.43 2.81-3.77 4.92-5.55 0.71-0.599 1.42-1.2 2.15-1.82 1.01-0.833 1.01-0.833 2.04-1.68 0.949-0.804 1.9-1.61 2.88-2.44 2.12-1.56 2.12-1.56 4.12-1.56 0.33-0.99 0.66-1.98 1-3 1.33-0.333 2.67-0.667 4-1 0.33-0.99 0.66-1.98 1-3 1.97-1.45 3.92-2.72 6-4 1.75-1.12 3.5-2.25 5.25-3.38 1.92-1.21 3.83-2.42 5.75-3.62 0.782-0.496 1.56-0.993 2.37-1.5 16.8-10.4 34.8-16.8 53.6-22.5 1.04-0.316 2.09-0.632 3.16-0.957 10.5-2.85 20.8-4.76 31.7-5.79 1-0.0967 1-0.0967 2.03-0.195 12.8-1.21 25.4-1.18 38.2-0.0546z" fill="#00C9F6"/>
<path transform="translate(491,408)" d="m0 0c-0.99 0.33-1.98 0.66-3 1-0.33 0.99-0.66 1.98-1 3-2.33 0.667-4.67 1.33-7 2-0.33 0.99-0.66 1.98-1 3-1.77 0.905-3.56 1.8-5.36 2.64-12 6.18-22.6 14.7-32.8 23.4-0.583 0.495-1.17 0.99-1.77 1.5-2.91 2.5-5.68 5.05-8.35 7.81-2.7 2.63-2.7 2.63-4.7 2.63-0.268 0.639-0.536 1.28-0.812 1.94-1.19 2.06-1.19 2.06-4.19 3.06-0.33 0.99-0.66 1.98-1 3-2.44 2.69-2.44 2.69-5 5h-2c-0.248 0.557-0.495 1.11-0.75 1.69-1.48 2.74-3.18 4.99-5.25 7.31h-2c-0.66 1.65-1.32 3.3-2 5h-2c-0.66 1.65-1.32 3.3-2 5h-2c-0.241 0.706-0.482 1.41-0.73 2.14-1.47 3.3-3.35 5.77-5.58 8.61-3.75 4.86-6.86 9.81-9.69 15.2-0.619 1.05-1.24 2.1-1.88 3.19-3.32 5.78-6.17 11.8-9.12 17.8-0.534 1.04-1.07 2.08-1.62 3.15-1.19 2.46-2.13 4.81-2.95 7.41-0.769 2.4-1.55 4.72-2.5 7.06-1.21 3.07-2.05 6.19-2.94 9.38-0.767 2.49-1.54 4.98-2.32 7.47-0.767 2.83-1.24 5.62-1.68 8.53-0.177 1.04-0.177 1.04-0.358 2.1-3.64 21.6-7.38 51.1 1.36 71.9 0.451 2.31 0.864 4.62 1.25 6.94 1.46 7.88 4.27 14.8 7.75 22.1 0.327 0.689 0.655 1.38 0.992 2.09 1.03 2.16 2.08 4.32 3.13 6.48 0.324 0.667 0.649 1.33 0.983 2.02 1.94 3.87 4.08 7.13 6.89 10.4 0.697 0.874 1.39 1.75 2.11 2.65 6.66 8.26 13.2 15.2 21.9 21.4 0.704 0.532 1.41 1.06 2.13 1.61 34.9 25.7 80.9 31.3 123 25.4 18.6-3.31 36.9-8.74 53.4-18.1 2.56-0.941 2.56-0.941 4.9-0.102 0.548 0.383 1.1 0.766 1.66 1.16-1.08 0.835-1.08 0.835-2.19 1.69-3.64 2.99-6.84 6.32-10.1 9.69-13 12.7-13 12.7-18.7 14.6-0.66 0.99-1.32 1.98-2 3-1.67 0.967-3.34 1.93-5.04 2.85-1.99 1.17-3.7 2.49-5.5 3.94-4.9 3.72-10.2 6.25-15.8 8.84-0.969 0.464-1.94 0.928-2.94 1.41-5.72 2.7-11.5 5.06-17.4 7.14-2.52 0.868-2.52 0.868-5.63 2.33-15.4 6.28-32.2 8.72-48.6 11.2-1.48 0.242-2.96 0.539-4.43 0.871-5.09 0.897-10.3 0.656-15.4 0.655-2.04 0.00218-4.08 0.0203-6.12 0.0393-6.79 0.0101-12.6-0.312-19.1-2.22-2.56-0.311-5.12-0.58-7.69-0.812-24.9-2.65-53-11.5-72.3-28.2v-2l-2.03-0.559c-4.28-2.07-7.21-5.15-10.5-8.5-0.705-0.711-1.41-1.42-2.14-2.15-18.1-18.8-29.2-41.9-36.3-66.8-0.34-1.2-0.681-2.4-1.03-3.64-10.2-38.2-6.05-75.9 9.03-112 0.296-0.716 0.592-1.43 0.897-2.17 1.03-2.49 2.07-4.97 3.1-7.46 0.332-0.8 0.664-1.6 1.01-2.42 5.86-14 12.9-28.5 22.6-40.2 1.9-2.39 3.1-4.99 4.39-7.75 2.36-3.81 4.79-6.89 8-10 1.34-1.66 2.67-3.33 4-5 1.77-2.04 3.56-4.06 5.34-6.09 1.27-1.47 2.48-2.99 3.66-4.54 2.22-2.64 4.65-4.72 7.29-6.92 1.86-1.55 1.86-1.55 4.02-3.77 5.89-5.89 12.2-11.3 18.6-16.7 0.884-0.743 1.77-1.49 2.68-2.25 2.27-1.62 3.72-2.34 6.45-2.75v-2c1.98-1.48 1.98-1.48 4.75-3.19 1.5-0.93 1.5-0.93 3.04-1.88 4.13-2.48 8.29-4.92 12.5-7.32 2.21-1.3 4.36-2.64 6.5-4.05 15.4-9.7 33.1-16.8 50.2-22.6 0.844-0.284 1.69-0.568 2.56-0.861 5.4-1.81 10.8-3.61 16.2-5.4 5.12-1.69 5.12-1.69 10.2-3.43 2.8-0.438 5.24 0.124 8 0.688z" fill="#F07D0E"/>
<path transform="translate(1341,900)" d="m0 0c2.86 1.03 3.86 1.75 5.38 4.43 2.67 6.78 4.92 13.5 6.62 20.6 0.402 1.65 0.402 1.65 0.812 3.33 2.2 9.26 2.2 9.26 2.81 13.9 0.0798 2.66 0.0798 2.66 1.38 3.75 0.23 2.15 0.396 4.3 0.535 6.46 0.0645 0.987 0.0645 0.987 0.13 1.99 0.0904 1.4 0.179 2.81 0.265 4.21 0.13 2.11 0.268 4.21 0.408 6.31 0.824 12.8 0.73 25.3-0.213 38-0.0786 1.2-0.157 2.4-0.238 3.64-0.126 1.73-0.126 1.73-0.254 3.49-0.11 1.55-0.11 1.55-0.222 3.13-0.403 2.69-1.17 4.36-2.41 6.74 0 1.84 0.00632 3.68 0.0547 5.52-0.129 5.88-0.776 12.4-3.04 17.9-1.01 2.62-1.5 4.97-1.93 7.74-1.01 5.88-2.66 11.4-4.53 17.1-0.3 0.933-0.599 1.87-0.908 2.83-2.45 7.56-5.03 14.9-8.65 22-1.86 4.07-3.65 8.17-5.37 12.3-1.68 3.93-3.66 7.69-5.69 11.4-0.351 0.659-0.703 1.32-1.06 2-4.32 8.05-4.32 8.05-6.87 9-2 0.25-2 0.25-4-0.75 0.33 0.99 0.66 1.98 1 3-0.66 0.99-1.32 1.98-2 3h-4c0.247 0.887 0.495 1.77 0.75 2.69 0.25 3.31 0.25 3.31-1.62 6-0.701 0.763-1.4 1.53-2.12 2.31-0.33 0.99-0.66 1.98-1 3-1.97 1.38-3.97 2.71-6 4-0.66 0.66-1.32 1.32-2 2-0.66 0.66-1.32 1.32-2 2 0.33 0.66 0.66 1.32 1 2-0.566 0.242-1.13 0.485-1.71 0.734-1.1 0.503-1.1 0.503-2.22 1.02-0.731 0.325-1.46 0.65-2.21 0.984-2.04 1.13-2.04 1.13-2.6 3.41-0.0812 0.614-0.162 1.23-0.246 1.86h-3c-0.33 1.32-0.66 2.64-1 4h-2c0.33 1.98 0.66 3.96 1 6-3.15 1.05-5.39 1.1-8.69 1.06-0.994-0.00902-1.99-0.018-3.01-0.0273-1.14-0.0174-1.14-0.0174-2.3-0.0352-0.3 0.614-0.601 1.23-0.91 1.86-1.17 2.3-2.37 4.21-4.09 6.14h-3c-0.66 1.32-1.32 2.64-2 4h-2v2c-0.897 0.389-0.897 0.389-1.81 0.785-2.35 1.31-3.53 2.56-5.19 4.65-2.15 2.61-4.17 4.67-7 6.56-0.681 0.516-1.36 1.03-2.06 1.56-1.61 1.19-3.27 2.33-4.94 3.44-0.289 0.639-0.577 1.28-0.875 1.94-1.5 2.76-3.42 3.54-6.12 5.06-1.75 1.58-1.75 1.58-3 3-0.66-0.33-1.32-0.66-2-1v2h-3v3c-3.73 0.879-7.17 1.09-11 1-0.33-0.66-0.66-1.32-1-2 1.32-0.33 2.64-0.66 4-1-0.33-2.64-0.66-5.28-1-8-0.99 0.33-1.98 0.66-3 1v-2h-2v-2c-0.99-0.33-1.98-0.66-3-1-0.66 0.33-1.32 0.66-2 1-0.66-0.66-1.32-1.32-2-2-2.11 0.319-2.11 0.319-4 1 1.65 0.33 3.3 0.66 5 1-1.32 1.98-2.64 3.96-4 6h4 1v7c1.32 0.33 2.64 0.66 4 1 0.188 2.88 0.188 2.88 0 6-3 2-3 2-6 2v2c-1.75 1.51-1.75 1.51-4 3.12-0.743 0.539-1.49 1.08-2.25 1.63-0.577 0.41-1.15 0.82-1.75 1.24-1.32-0.66-2.64-1.32-4-2 0.66-1.32 1.32-2.64 2-4-1.32 0.99-2.64 1.98-4 3-0.33-0.99-0.66-1.98-1-3-0.66-0.66-1.32-1.32-2-2 1.32-0.99 2.64-1.98 4-3-0.33-0.33-0.66-0.66-1-1v-2c-0.66-0.33-1.32-0.66-2-1v-2h-5c0.66-0.33 1.32-0.66 2-1-1.98-0.66-3.96-1.32-6-2 0.33-1.65 0.66-3.3 1-5-0.619-0.309-1.24-0.619-1.88-0.938l-4.12-2.06v2c-2.88 0.125-2.88 0.125-6 0-0.66-0.66-1.32-1.32-2-2-0.66 0.99-1.32 1.98-2 3-3.62 0.188-3.62 0.188-7 0v1h-7c-0.33-1.32-0.66-2.64-1-4-3 0.998-4.16 1.51-6 4 0.228 2.16 0.228 2.16 1 4-0.66-0.33-1.32-0.66-2-1-3.53 0.0874-3.53 0.0874-7 1-1.23 1.95-1.23 1.95-2 4-2.12 0.75-2.12 0.75-4 1v-2c-0.99 0.33-1.98 0.66-3 1v2c-3.13 1.04-3.99 0.934-7 0-0.33 0.99-0.66 1.98-1 3h-3c-0.268 0.784-0.536 1.57-0.812 2.38-1.19 2.62-1.19 2.62-4.19 4.62 0.66 0.33 1.32 0.66 2 1-0.536-0.206-1.07-0.412-1.62-0.625-3.21-0.506-5.39 0.471-8.38 1.62 0.99 1.49 0.99 1.49 2 3-0.375 2.19-0.375 2.19-1 4h-6c0.99-0.66 1.98-1.32 3-2-0.66-0.66-1.32-1.32-2-2 0.375-2.62 0.375-2.62 1-5-1.05 0.165-2.1 0.33-3.19 0.5-5.92 0.757-11.9 0.582-17.8 0.5-0.33 0.99-0.66 1.98-1 3h-7c-0.33 1.32-0.66 2.64-1 4h-11v-2c-1.32-0.33-2.64-0.66-4-1h3l-2-4h-9c-0.33 0.66-0.66 1.32-1 2 2.31 0.33 4.62 0.66 7 1 0.33 0.99 0.66 1.98 1 3 2.02 0.733 2.02 0.733 4 1v3h5c-0.33 1.65-0.66 3.3-1 5h-11c-0.33-0.99-0.66-1.98-1-3-0.66-0.33-1.32-0.66-2-1-0.333 0.963-0.333 0.963-0.672 1.95-1.33 2.05-1.33 2.05-3.72 2.73-10.2 0.696-10.2 0.696-14.6-1.68-2.12-2.58-2.01-3.84-1.75-7.19 0.247-0.928 0.495-1.86 0.75-2.81 0.66-0.33 1.32-0.66 2-1v-2c-1.13-0.268-2.27-0.536-3.44-0.812-1.18-0.392-2.35-0.784-3.56-1.19-0.495-1.49-0.495-1.49-1-3 0.66-0.33 1.32-0.66 2-1-0.33-1.65-0.66-3.3-1-5 2.88-0.625 2.88-0.625 6-1 0.66 0.66 1.32 1.32 2 2 1.99 0.398 3.99 0.738 6 1v2c1.32 0.33 2.64 0.66 4 1-0.66 0.33-1.32 0.66-2 1v3c-1.65 0.33-3.3 0.66-5 1 0.33 0.66 0.66 1.32 1 2h2.38 4.62c1.63-1.46 1.63-1.46 3-3-0.66-0.33-1.32-0.66-2-1v-5c-2.98-1.52-5.82-2.94-9-4v-2c-1.67 0.0619-1.67 0.0619-3.38 0.125-3.62-0.125-3.62-0.125-5.62-2.12h2c-0.495-1.49-0.495-1.49-1-3l2.44-0.875c2.7-0.858 2.7-0.858 3.56-3.12-1.32-0.33-2.64-0.66-4-1 0.66-0.66 1.32-1.32 2-2 0.99 0.33 1.98 0.66 3 1 5.35 0.801 10.6 1.16 16 1.17 1.11 0.00622 1.11 0.00622 2.23 0.0126 2.36 0.00959 4.73 0.00967 7.09 0.00697 0.805 6.04e-5 1.61 1.21e-4 2.44 1.83e-4 14.2-0.0153 28.1-0.501 42-3.7 2.7-0.592 5.41-1.04 8.14-1.47 8.48-1.36 16.6-3.42 24.9-5.83 2.9-0.845 5.79-1.54 8.75-2.15 3.62-0.78 6.95-1.87 10.4-3.23 2.26-0.88 4.55-1.67 6.85-2.46 8.96-3.06 17.7-6.22 26.2-10.4 1.29-0.592 2.58-1.18 3.88-1.77 17.4-7.96 33.3-17.6 48.9-28.7 2.25-1.54 2.25-1.54 4.79-2.99 2.56-1.61 4.37-3.39 6.46-5.55 1.46-1.17 2.94-2.31 4.44-3.44 3.46-2.65 6.52-5.44 9.56-8.56 0.949-0.763 1.9-1.53 2.88-2.31 3.27-2.65 5.86-5.77 8.51-9.02 1.61-1.67 1.61-1.67 4.61-2.67 0.289-0.743 0.577-1.49 0.875-2.25 1.14-2.79 2.4-4.08 4.57-6.1 2.87-3.04 5.18-6.52 7.59-9.93 1.28-1.78 2.61-3.52 3.98-5.23 7.5-9.4 13.2-20 19-30.5 0.345-0.627 0.69-1.25 1.05-1.9 2.91-5.29 5.76-10.5 7.95-16.1 0.765-1.63 1.54-3.25 2.31-4.88 2.64-5.75 4.62-11.7 6.56-17.7 0.877-2.69 1.8-5.32 2.82-7.96 1.3-3.47 2.32-6.93 3.31-10.5 0.33-0.887 0.66-1.77 1-2.69 1.22-4.03 1.82-8.05 2.44-12.2 0.562-3.1 0.562-3.1 1.55-6.29 1.3-4.9 1.73-9.7 2.13-14.7 0.0835-1.03 0.167-2.05 0.253-3.11 1.41-18.4 1.32-37.8-2.38-56-0.0646-1.77-0.0861-3.54-0.0625-5.31 0.00902-0.883 0.018-1.77 0.0273-2.68 0.0174-0.996 0.0174-0.996 0.0352-2.01z" fill="#00C9F6"/>
<path transform="translate(837,1077)" d="m0 0c4 0 4 0 6 1-0.33 0.33-0.66 0.66-1 1 0.619 0.186 1.24 0.371 1.88 0.562 3.19 2.16 3.29 4.79 4.12 8.44 0.495 1.48 0.495 1.48 1 3h-2c0.476 2.13 0.956 4.25 1.44 6.38 0.267 1.18 0.534 2.37 0.809 3.59 0.61 2.93 0.61 2.93 1.75 5.04h-2l1 2h2c-0.33 0.99-0.66 1.98-1 3-0.0395 2.33-0.044 4.67 0 7h2v2c0.99 0.33 1.98 0.66 3 1l1 2c1.16-0.0348 1.16-0.0348 2.34-0.0703 1-0.018 2.01-0.0361 3.04-0.0547 0.998-0.0232 2-0.0464 3.02-0.0703 2.6 0.195 2.6 0.195 4.6 2.2h1v6c-1.39 0.433-1.39 0.433-2.81 0.875-3.29 1.01-3.29 1.01-6.19 3.12 0.99 0.33 1.98 0.66 3 1h-2c-0.33 1.98-0.66 3.96-1 6-1.98 0.495-1.98 0.495-4 1-0.33-0.66-0.66-1.32-1-2v3h2v2h-2v2h2c0.495-1.48 0.495-1.48 1-3 1.32 0.66 2.64 1.32 4 2v2c0.99 0.33 1.98 0.66 3 1 0.33 1.98 0.66 3.96 1 6h3l1 8c2.97 0.495 2.97 0.495 6 1v2c2.31 1.32 4.62 2.64 7 4l-2 4h2v2h2c0.681 1.14 0.681 1.14 1.38 2.31 1.66 2.74 2.98 3.95 5.62 5.69 1.49 0.99 1.49 0.99 3 2-0.165 0.619-0.33 1.24-0.5 1.88-0.576 2.09-0.576 2.09-0.5 4.12h2v2c0.598-0.227 1.2-0.454 1.81-0.688 2.19-0.312 2.19-0.312 3.88 0.688 1.88 2.87 1.99 5.63 2.31 9 1.49 0.495 1.49 0.495 3 1 1.33 0.667 2.67 1.33 4 2 1.66 0.673 3.33 1.34 5 2 0.66 0.33 1.32 0.66 2 1 0.66-0.66 1.32-1.32 2-2 0.99-0.33 1.98-0.66 3-1 0.289 1.07 0.577 2.14 0.875 3.25 0.947 3.55 0.947 3.55 2.19 5.88 1.17 2.34 1.74 4.26 1.94 6.88-1.31 1.81-1.31 1.81-3 3h-2v2c0.66 0.66 1.32 1.32 2 2h-2v2c1.14-0.0309 1.14-0.0309 2.31-0.0625 2.69 0.0625 2.69 0.0625 5.69 1.06v3c2.64 0.99 5.28 1.98 8 3v2h2c0.474 0.66 0.949 1.32 1.44 2 0.516 0.66 1.03 1.32 1.56 2h3c2 0.667 4 1.33 6 2h3c1.34 0.306 2.68 0.635 4 1-0.99 0.33-1.98 0.66-3 1 1.24 0.144 2.48 0.289 3.75 0.438 6.42 0.829 6.42 0.829 8.25 1.56 0.33 0.99 0.66 1.98 1 3h3c0.978 3.04 1.2 5 0 8-4.94 2.84-10.4 3.36-16 3v-2h-2v-2c-2.82-1.42-5.65-2.83-8.5-4.19-0.753-0.365-1.51-0.73-2.28-1.11-2.53-0.805-3.76-0.585-6.22 0.293v-2c-1.98-0.99-1.98-0.99-4-2v-2h-3v-2c-2.33-1.21-4.5-2.17-7-3v-2h-6c-0.289-0.969-0.577-1.94-0.875-2.94-0.767-3.17-0.767-3.17-3.12-4.06h2v-2c-1.32 0.99-2.64 1.98-4 3v-3h-4v-2c-1.65 0.33-3.3 0.66-5 1 0.205 0.615 0.41 1.23 0.621 1.86 1.13 3.38 2.25 6.76 3.38 10.1 0.701-0.0412 1.4-0.0825 2.12-0.125 3.26 0.142 5.83 0.992 8.88 2.12v2h2v2c0.743 0.289 1.49 0.577 2.25 0.875 6.52 2.67 6.52 2.67 7.75 5.12 0.66 0.33 1.32 0.66 2 1 0.414 2.07 0.414 2.07 0.625 4.56 0.112 1.24 0.112 1.24 0.227 2.5 0.049 0.638 0.098 1.28 0.148 1.93 0.804 0.124 1.61 0.247 2.44 0.375 0.846 0.206 1.69 0.412 2.56 0.625l1 2c0.66 0.268 1.32 0.536 2 0.812 0.99 0.588 0.99 0.588 2 1.19 0.625 2.5 0.625 2.5 1 5 1.95 1.95 3.53 2.85 6 4-0.33 1.65-0.66 3.3-1 5h2v5c1.65 0.33 3.3 0.66 5 1l-1 2c-16.2-4.78-31.2-10.7-46-19-0.828-0.459-1.66-0.918-2.51-1.39-5.9-3.41-11.5-7.25-17.2-11-0.809-0.538-1.62-1.08-2.45-1.63-4.63-3.15-8.63-6.45-12.5-10.5-1.37-1.51-1.37-1.51-3.4-2.4v-2h-2v-2c-0.99-0.33-1.98-0.66-3-1-2.55-2.47-4.74-5.27-7-8-0.633-0.758-1.27-1.52-1.92-2.3-7.88-9.62-15-19.9-21.1-30.7-0.319-0.559-0.637-1.12-0.965-1.7-4.19-7.4-7.76-14.6-10.2-22.7-0.799-2.75-0.799-2.75-2.29-6-4.13-9.81-6.55-20.3-9.03-30.6-0.452-1.87-0.92-3.74-1.39-5.61-1.36-5.57-2.48-10.6-2.08-16.3h2c0.66-2.64 1.32-5.28 2-8 0.66 0.66 1.32 1.32 2 2-0.375 2.62-0.375 2.62-1 5h2c-0.0464-0.748-0.0928-1.5-0.141-2.27-0.108-2.96-0.148-5.79 0.141-8.73 1.31-1.35 2.65-2.69 4-4 0.881-4.63 1-9.29 1-14 3.75-1.12 3.75-1.12 6 0v-2c3.75-1.12 3.75-1.12 6 0v-3c-1.32-0.33-2.64-0.66-4-1l1-2h-3c-0.33 0.99-0.66 1.98-1 3 0.33-1.65 0.66-3.3 1-5h6c0.33-0.66 0.66-1.32 1-2z" fill="#00C9F6"/>
<path transform="translate(336,398)" d="m0 0c1.65 0.33 3.3 0.66 5 1-0.66 0.99-1.32 1.98-2 3-1.29 2.58-2.11 5.26-3 8 0.99 0.33 1.98 0.66 3 1h-2v2h4c0.33-0.99 0.66-1.98 1-3h2c0.33-0.99 0.66-1.98 1-3h3v3c2.64 0.66 5.28 1.32 8 2v-3c2.48-0.495 2.48-0.495 5-1 0.495 0.99 0.495 0.99 1 2 0.99 0.33 1.98 0.66 3 1v3c0.562-0.184 1.12-0.369 1.7-0.559 2.68-0.515 4.41-0.163 7.05 0.496 1.2 0.292 1.2 0.292 2.42 0.59 0.603 0.156 1.21 0.312 1.83 0.473v2c1.65-0.33 3.3-0.66 5-1-0.34 0.773-0.34 0.773-0.688 1.56-0.48 3.75 0.959 6.17 2.69 9.44 0.99 0.33 1.98 0.66 3 1v-2c0.675-0.254 1.35-0.508 2.05-0.77 0.892-0.344 1.78-0.688 2.7-1.04 1.32-0.505 1.32-0.505 2.67-1.02 2.52-1.14 4.4-2.48 6.58-4.17 1.64-0.72 3.28-1.44 4.93-2.11 3.34-1.45 6.53-3.19 9.73-4.91 2.33-0.988 2.33-0.988 6.33-0.988v-2c2.23-0.648 4.46-1.29 6.69-1.94 1.24-0.36 2.48-0.719 3.76-1.09 2.85-0.78 5.65-1.45 8.55-1.97-2.1 2.33-3.75 3.5-6.73 4.46-0.721 0.243-1.44 0.486-2.19 0.736-0.75 0.243-1.5 0.486-2.27 0.736-5.15 1.69-9.99 3.54-14.8 6.03-2.06 1.05-4.14 2.02-6.25 2.97-9.78 4.45-19 9.4-28.2 15.1-6.17 3.83-6.17 3.83-9.59 5.15-0.657 0.277-1.31 0.554-1.99 0.84-0.33 0.99-0.66 1.98-1 3-2.06 1.37-2.06 1.37-5 3-4.5 2.65-8.41 5.17-12 9-1.03 0.864-2.08 1.72-3.12 2.56-2.98 2.3-2.98 2.3-4.88 5.44h-3c-0.227 0.557-0.454 1.11-0.688 1.69-1.69 2.97-3.84 4.96-6.31 7.31-0.825 0.825-1.65 1.65-2.5 2.5-1.64 1.64-3.28 3.26-4.94 4.88-2.48 2.54-4.77 5.16-7.04 7.88-1.53 1.75-1.53 1.75-3.46 3.62-2.31 2.37-4.2 4.87-6.13 7.56-0.672 0.927-1.34 1.85-2.04 2.81-1.94 2.72-1.94 2.72-3.52 5.6-0.455 0.71-0.91 1.42-1.38 2.15h-2c-0.248 0.701-0.495 1.4-0.75 2.12-1.42 3.26-3.26 5.92-5.25 8.88-0.868 1.51-1.72 3.03-2.56 4.56-0.42 0.763-0.84 1.53-1.27 2.31-0.384 0.701-0.768 1.4-1.16 2.12-1.69 3.06-1.69 3.06-3 5h-2c-0.103 0.887-0.206 1.77-0.312 2.69-0.716 3.45-1.86 5.34-3.69 8.31-0.819 1.7-1.61 3.4-2.38 5.12-1.25 2.82-2.5 5.63-3.85 8.4-3.48 7.27-5.98 14.8-8.45 22.4-0.725 2.25-1.48 4.4-2.38 6.59-1.3 3.36-2.11 6.83-2.95 10.3-0.332 1.37-0.665 2.75-1 4.12-0.163 0.671-0.326 1.34-0.494 2.03-0.483 1.88-1.04 3.75-1.6 5.61-0.855 3.16-1.27 5.98-1.47 9.23-0.228 3.41-0.519 6.78-0.953 10.2-0.691 6.12-0.676 12.2-0.672 18.4 8.06e-4 1.26 0.00161 2.52 0.00244 3.81 0.056 8.78 0.408 17.5 1.06 26.2 0.118 1.63 0.118 1.63 0.238 3.29 0.406 4.87 1.04 8.68 2.89 13.2 0.125 3.31 0.125 3.31 0 6-2.34-0.637-2.34-0.637-5-2-1.44-2.58-1.44-2.58-2.56-5.81-0.412-1.18-0.825-2.36-1.25-3.57-0.588-1.79-0.588-1.79-1.19-3.62-0.351-1.03-0.701-2.06-1.06-3.12-19.4-59.6-8.04-132 19.1-188 0.568-1.18 1.14-2.35 1.72-3.57 7.49-15.3 16-29.8 26.2-43.5 1.52-2.09 3-4.18 4.45-6.31 0.393-0.577 0.785-1.15 1.19-1.75 1.1-1.63 2.2-3.27 3.3-4.9 2.19-2.96 4.55-5.37 7.18-7.95 2.04-2.3 4.02-4.65 6-7 3.52-4.18 7.08-8.19 11-12 1.25-1.23 2.5-2.46 3.75-3.69 0.889-0.872 0.889-0.872 1.8-1.76 1.55-1.51 1.55-1.51 2.45-3.55z" fill="#F67F0B"/>
<path transform="translate(645,307)" d="m0 0c23.4 2.49 49.7 19 68 33 0.821 0.626 1.64 1.25 2.49 1.9 14.9 11.6 29.4 25.1 39.5 41.1 0.383 0.596 0.765 1.19 1.16 1.81 5.28 8.22 10.3 16.5 14.8 25.2 0.416 0.77 0.833 1.54 1.26 2.33 12.6 24 19.5 52.5 23.2 79.2 0.401 2.76 0.91 5.43 1.49 8.16 1.11 5.46 1.63 10.9 2.07 16.4 0.156 1.89 0.313 3.78 0.473 5.67 0.0987 1.23 0.0987 1.23 0.199 2.49 0.203 2.03 0.468 4.05 0.761 6.07 3.95 28.1 3.32 57.2 1.57 85.4-0.0434 0.699-0.0868 1.4-0.131 2.12-0.732 11.5-0.732 11.5-1.93 15.1-0.0474 1.36-0.045 2.72-0.00781 4.08 0.054 4.94-0.343 9.76-0.867 14.7-0.0786 0.824-0.157 1.65-0.238 2.5-0.648 6.19-0.648 6.19-1.96 9.27-1.11 2.95-0.924 5.48-0.853 8.59-0.157 5.9-1.2 11.7-2.1 17.6-0.351 2.29-0.686 4.58-1.02 6.86-0.22 1.46-0.442 2.91-0.664 4.37-0.099 0.683-0.198 1.37-0.3 2.07-0.759 4.8-0.759 4.8-2.99 7.03-0.247-0.598-0.495-1.2-0.75-1.81-1.44-2.52-2.89-3.52-5.25-5.19-1.35-1.31-2.69-2.64-4-4 0.33-0.99 0.66-1.98 1-3 0.348-1.66 0.684-3.33 1-5-0.99-0.33-1.98-0.66-3-1h3c1.23-6.07 2.28-11.8 2-18 1.65-0.66 3.3-1.32 5-2v-16h-3c-0.127-6.47-0.127-6.47 0.566-9.34 0.531-3.25 0.0317-5.73-0.566-8.97-1.07-7.26-1.01-14.2-0.688-21.6 0.0471-1.08 0.0941-2.15 0.143-3.26 0.401-7.72 0.401-7.72 1.54-8.86 0.0715-1.35 0.084-2.71 0.0625-4.06-0.0309-1.95-0.0309-1.95-0.0625-3.94-0.66-0.33-1.32-0.66-2-1v-14h1v8h2c-0.144-0.887-0.289-1.77-0.438-2.69-0.83-5.74-1.15-11.5-1.56-17.3h2v-2c-0.66-0.33-1.32-0.66-2-1h2c-0.33-0.99-0.66-1.98-1-3-0.205-2.79-0.372-5.58-0.5-8.38-0.214-4.64-0.477-9.07-1.5-13.6v-2h-2c-0.74-5.71-1.1-11.2-1-17 0.66-0.33 1.32-0.66 2-1-0.66-0.33-1.32-0.66-2-1v-2c-1.32-0.33-2.64-0.66-4-1-1.47-5.38-1.07-9.99 1.56-14.9 0.474-0.681 0.949-1.36 1.44-2.06 0.66 0.33 1.32 0.66 2 1 0.33-0.66 0.66-1.32 1-2h-4v2h-2v-23h2c0.377-6.16-0.183-10.4-3-16-0.673-1.66-1.34-3.33-2-5h-2c-0.33-0.66-0.66-1.32-1-2-0.66 0.33-1.32 0.66-2 1-0.33-0.99-0.66-1.98-1-3-0.66 0.33-1.32 0.66-2 1-0.363-1.29-0.715-2.58-1.06-3.88-0.197-0.719-0.394-1.44-0.598-2.18-0.34-1.95-0.34-1.95 0.66-3.95-0.66-0.33-1.32-0.66-2-1h2c-0.33-1.32-0.66-2.64-1-4-0.66 0.99-1.32 1.98-2 3-0.495-2.48-0.495-2.48-1-5h-3c-0.33-0.99-0.66-1.98-1-3 1.44-2.69 1.44-2.69 3-5-1.32-1.32-2.64-2.64-4-4-0.99 0.495-0.99 0.495-2 1 0.206-0.701 0.413-1.4 0.625-2.12 0.465-3.57-0.0817-5.64-1.62-8.88-2.03-0.969-2.03-0.969-4-1v-4c-1.49 0.495-1.49 0.495-3 1l-2-8c-1.49 0.495-1.49 0.495-3 1-0.33-1.32-0.66-2.64-1-4-0.66 0.99-1.32 1.98-2 3-0.33-0.66-0.66-1.32-1-2 0.495-1.49 0.495-1.49 1-3-0.66-0.33-1.32-0.66-2-1h2v-2c-0.639-0.144-1.28-0.289-1.94-0.438-2.06-0.562-2.06-0.562-3.06-1.56-0.66-0.33-1.32-0.66-2-1-0.289-0.825-0.577-1.65-0.875-2.5-0.841-2.65-0.841-2.65-3.06-3.25-0.681-0.0825-1.36-0.165-2.06-0.25-1.49-0.495-1.49-0.495-3-1-0.33-1.98-0.66-3.96-1-6-1.49-0.495-1.49-0.495-3-1 0.495-1.49 0.495-1.49 1-3h-2v-2c-1.65-0.33-3.3-0.66-5-1 0.495 1.49 0.495 1.49 1 3-2.31-0.66-4.62-1.32-7-2v-2c-0.33 0.33-0.66 0.66-1 1l-3-3c0.33-0.33 0.66-0.66 1-1-0.495-0.413-0.99-0.825-1.5-1.25-1.5-1.75-1.5-1.75-1.5-5.75-1.13-0.454-2.27-0.908-3.44-1.38-3.56-1.62-3.56-1.62-4.56-3.62-1.66-0.681-3.33-1.35-5-2-0.66-0.66-1.32-1.32-2-2-2.57-0.648-2.57-0.648-5-1 0.66-0.33 1.32-0.66 2-1v-2c-0.619 0.206-1.24 0.413-1.88 0.625-0.701 0.124-1.4 0.248-2.12 0.375-0.66-0.66-1.32-1.32-2-2-0.928 0.248-0.928 0.248-1.88 0.5-2.72 0.641-3.79-0.0821-6.12-1.5 0.33-0.99 0.66-1.98 1-3 0.66 0.66 1.32 1.32 2 2 1.33-2.67 0.671-4.17 0-7-1.3-0.144-2.6-0.289-3.94-0.438-3.94-0.438-3.94-0.438-5.06-1.56-1.98 0.99-1.98 0.99-4 2v-4l-2-1c0.33-0.66 0.66-1.32 1-2l2 1c-0.33-0.66-0.66-1.32-1-2-2.05-0.595-4.09-0.955-6.19-1.34-0.598-0.218-1.2-0.436-1.81-0.66-0.33-0.99-0.66-1.98-1-3h-2c0.0954-0.626 0.191-1.25 0.289-1.9 0.111-0.817 0.222-1.63 0.336-2.48 0.174-1.22 0.174-1.22 0.352-2.46 0.00773-0.714 0.0155-1.43 0.0234-2.16-0.66-0.66-1.32-1.32-2-2-0.625-2.62-0.625-2.62-1-5z" fill="#F67F0B"/>
<path transform="translate(879,441)" d="m0 0v3h4c0.99 1.49 0.99 1.49 2 3 2.05 1.19 2.05 1.19 4 2-0.33 0.66-0.66 1.32-1 2l-2-1v2c0.763-0.0825 1.53-0.165 2.31-0.25 2.69 0.25 2.69 0.25 4.5 2.12 1.19 2.12 1.19 2.12 1.19 4.12h-2c0.0312 1.97 0.0312 1.97 1 4 3 1.3 3 1.3 6 2v9l2 1c-0.0928 1.58-0.0928 1.58-0.188 3.19 0.201 4.08 1 5.49 3.19 8.81 1.25 4.49 1.25 4.49 0 7h2c0.495 2.48 0.495 2.48 1 5h2c2.63 2.53 3.17 4.55 3.44 8.06 0.133 3.88 0.133 3.88 2.31 5.56 0.742 0.454 1.49 0.908 2.25 1.38 4.44 4.34 5.63 7.57 6.6 13.7 0.58 3.41 1.87 6.28 3.4 9.34-0.282 2.34-0.613 4.68-1 7h2c0.33-0.66 0.66-1.32 1-2 0.254 1.12 0.508 2.25 0.77 3.4 0.347 1.51 0.694 3.02 1.04 4.54 0.179 0.781 0.359 1.56 0.544 2.37 0.944 4.02 1.98 7.89 3.46 11.8 1.55 4.27 1.07 7.52 0.188 11.9h4c-0.33 1.32-0.66 2.64-1 4-1.32-0.33-2.64-0.66-4-1 0.33 1.32 0.66 2.64 1 4-1.98 0.33-3.96 0.66-6 1v-4c-1.32-0.33-2.64-0.66-4-1v-4c-0.536 0.33-1.07 0.66-1.62 1-2.91 1.23-5.24 1.14-8.38 1-0.0928 1.18-0.0928 1.18-0.188 2.38-0.268 0.866-0.536 1.73-0.812 2.62-2.56 1.31-2.56 1.31-5 2v2h-2c0.599 2.35 1.27 4.69 2 7 0.66 0.33 1.32 0.66 2 1-1.12 2.44-1.12 2.44-3 5-3.19 0.812-3.19 0.812-6 1 0.33 0.66 0.66 1.32 1 2-0.309 0.722-0.619 1.44-0.938 2.19-1.28 2.87-1.28 2.87-1 6.38-0.0672 3.7-0.557 4.83-3.06 7.44-0.66-0.33-1.32-0.66-2-1-1.33 3-1.33 3 0 6-0.99 0.66-1.98 1.32-3 2-0.343 1.33-0.676 2.66-1 4-1.56 1.75-1.56 1.75-3 3-0.66-0.33-1.32-0.66-2-1-0.33 1.65-0.66 3.3-1 5-2.31-0.66-4.62-1.32-7-2v-2c-3.3-0.99-6.6-1.98-10-3-0.33-2.97-0.66-5.94-1-9h-1c-0.00547-0.835-0.00547-0.835-0.011-1.69-0.195-27.2-0.835-54.4-2.86-81.6-0.0811-1.12-0.162-2.24-0.246-3.39-0.833-11.3-1.81-22.5-3.92-33.7-0.74-3.95-1.1-7.65-0.959-11.7 0.66 0.66 1.32 1.32 2 2l2-1c2.35 0.608 4.69 1.27 7 2v5h8c-0.474 0.66-0.949 1.32-1.44 2-1.45 2.79-1.8 4.11-2.06 7.12-0.5 3.88-0.5 3.88-2.05 5.16-1.81 1.78-1.81 1.78-1.56 5.12 0.119 1.31 0.237 2.62 0.359 3.98 0.162 1.96 0.162 1.96 0.328 3.96 0.339 2.94 0.775 5.77 1.42 8.66 5.33 0.999 9.66 1.09 15 0 0.66-0.99 1.32-1.98 2-3h2c0.295-6.09-0.357-10.6-2.26-16.4-1.3-4.64-2.97-11.2-0.738-15.6-1.49 0.495-1.49 0.495-3 1-2.34-0.278-4.68-0.605-7-1v-2c-1.49-0.495-1.49-0.495-3-1h3v-3c-1.49 0.495-1.49 0.495-3 1v-2h3v-3c-0.66-0.33-1.32-0.66-2-1h2c-0.464-1.21-0.464-1.21-0.938-2.44-1.06-3.55-1.49-6.8-1.86-10.5-0.582-5.89-1.92-12.8-6.21-17.1-0.379-2.31-0.379-2.31-0.562-5-0.21-3.64-0.21-3.64-1.44-7 4.03-2.96 6.17-3.24 11-2z" fill="#00C9F6"/>
<path transform="translate(1207,801)" d="m0 0c13.7-1.25 27.8 5.32 40 11 1.08 0.489 1.08 0.489 2.19 0.988 33.2 15.7 55.2 45.3 67.8 79 1.88 5.34 3.59 10.3 3 16-0.33 0.33-0.66 0.66-1 1-0.0408 2-0.0425 4 0 6-0.99 0.33-1.98 0.66-3 1v5c-0.99 0.33-1.98 0.66-3 1-0.33-0.33-0.66-0.66-1-1-0.433 0.969-0.866 1.94-1.31 2.94-1.69 3.06-1.69 3.06-4.69 4.06-2.35-0.598-4.69-1.26-7-2v-5c-1.48-0.495-1.48-0.495-3-1-0.66-0.66-1.32-1.32-2-2 0.375-2.62 0.375-2.62 1-5h-3v2c-0.578-0.33-1.15-0.66-1.75-1-2.45-1.27-2.45-1.27-6.25-1-2.23-0.281-4.46-0.596-6.69-0.938-1.74-0.261-1.74-0.261-3.51-0.527-2.8-0.535-2.8-0.535-3.8-1.54-0.495 1.49-0.495 1.49-1 3-1.63-0.141-3.25-0.288-4.88-0.438-1.36-0.122-1.36-0.122-2.74-0.246-2.38-0.316-2.38-0.316-4.38-1.32-1.47-3.74-1.11-7.79-1.06-11.8 0.00451-0.697 0.00902-1.39 0.0137-2.11 0.0117-1.71 0.0297-3.42 0.0488-5.14h-3c-0.217-0.959-0.217-0.959-0.438-1.94-0.373-2.04-0.373-2.04-1.56-3.06-0.592-6.28-0.592-6.28 2-9.44 0.66-0.516 1.32-1.03 2-1.56-0.722-0.289-1.44-0.577-2.19-0.875-0.928-0.371-1.86-0.743-2.81-1.12-0.887-0.289-1.77-0.577-2.69-0.875-2.71-1.32-3.29-2.34-4.31-5.12 1.32-0.99 2.64-1.98 4-3-0.495-2.97-0.495-2.97-1-6h-4v-2l-2-1c4.75-1 4.75-1 7-1v-5c-0.99-0.33-1.98-0.66-3-1-0.689-2.33-1.35-4.66-2-7-1.54-1.71-1.54-1.71-3-3v-3c-0.804 0.186-1.61 0.371-2.44 0.562-0.846 0.144-1.69 0.289-2.56 0.438-0.33-0.33-0.66-0.66-1-1-1.53 0.0894-3.05 0.245-4.56 0.438-0.826 0.102-1.65 0.204-2.5 0.309-0.638 0.0838-1.28 0.168-1.93 0.254 0.66-1.32 1.32-2.64 2-4h2v-2c-2.64 0.66-5.28 1.32-8 2v-1c-1.65-0.33-3.3-0.66-5-1v-2h-2v-2c-0.99-0.33-1.98-0.66-3-1-0.99-0.66-1.98-1.32-3-2-2.35-0.363-4.67-0.503-7.04-0.656-0.647-0.113-1.29-0.227-1.96-0.344-0.33-0.66-0.66-1.32-1-2v4c-5.62 1.12-5.62 1.12-9 0v-2h-2v-2c-0.66-0.33-1.32-0.66-2-1 1-2 1-2 4-4 0.412-0.701 0.825-1.4 1.25-2.12 1.75-1.88 1.75-1.88 5.31-2.19 3.44 0.312 3.44 0.312 5.44 1.31v-6c2.64 0.66 5.28 1.32 8 2 0.66-0.99 1.32-1.98 2-3-0.99-1.65-1.98-3.3-3-5z" fill="#00C3F0"/>
<path transform="translate(491,408)" d="m0 0c-0.99 0.33-1.98 0.66-3 1-0.33 0.99-0.66 1.98-1 3-2.33 0.667-4.67 1.33-7 2-0.33 0.99-0.66 1.98-1 3-1.77 0.905-3.56 1.8-5.36 2.64-12 6.18-22.6 14.7-32.8 23.4-0.583 0.495-1.17 0.99-1.77 1.5-2.91 2.5-5.68 5.05-8.35 7.81-2.7 2.63-2.7 2.63-4.7 2.63-0.268 0.639-0.536 1.28-0.812 1.94-1.19 2.06-1.19 2.06-4.19 3.06-0.33 0.99-0.66 1.98-1 3-2.44 2.69-2.44 2.69-5 5h-2c-0.248 0.557-0.495 1.11-0.75 1.69-1.48 2.74-3.18 4.99-5.25 7.31h-2c-0.66 1.65-1.32 3.3-2 5h-2c-0.66 1.65-1.32 3.3-2 5h-2c-0.241 0.706-0.482 1.41-0.73 2.14-1.47 3.3-3.35 5.77-5.58 8.61-3.75 4.86-6.86 9.81-9.69 15.2-0.619 1.05-1.24 2.1-1.88 3.19-3.94 6.84-7.35 14-10.7 21.2-1.41 2.63-1.41 2.63-3.41 3.63 0.119-0.759 0.237-1.52 0.359-2.3 0.129-0.994 0.258-1.99 0.391-3.01 0.139-0.986 0.278-1.97 0.422-2.99 0.129-2.84 0.129-2.84-2.16-4.55-0.665-0.378-1.33-0.755-2.02-1.14 0.33-0.66 0.66-1.32 1-2-1.95 0.195-1.95 0.195-4 1-0.237 0.65-0.474 1.3-0.719 1.97-1.28 2.03-1.28 2.03-4.32 2.86-1.78 0.209-1.78 0.209-3.59 0.422-1.19 0.15-2.38 0.299-3.6 0.453-0.915 0.098-1.83 0.196-2.77 0.297v4h-2c-0.33-1.65-0.66-3.3-1-5-1.98 0.495-1.98 0.495-4 1v-6l3-1v4c0.66-1.65 1.32-3.3 2-5-2.35-2.77-4.15-3.52-7.69-4.19-1.21-0.238-1.21-0.238-2.45-0.48-0.615-0.11-1.23-0.219-1.86-0.332v-2c-0.99-0.33-1.98-0.66-3-1l2-1h-4v-3c-0.66-0.33-1.32-0.66-2-1 2.23-6.51 6.86-11 11.3-16.1 1.27-1.47 2.48-2.99 3.66-4.54 2.22-2.64 4.65-4.72 7.29-6.92 1.86-1.55 1.86-1.55 4.02-3.77 5.89-5.89 12.2-11.3 18.6-16.7 0.884-0.743 1.77-1.49 2.68-2.25 2.27-1.62 3.72-2.34 6.45-2.75v-2c1.98-1.48 1.98-1.48 4.75-3.19 1.5-0.93 1.5-0.93 3.04-1.88 4.13-2.48 8.29-4.92 12.5-7.32 2.21-1.3 4.36-2.64 6.5-4.05 15.4-9.7 33.1-16.8 50.2-22.6 0.844-0.284 1.69-0.568 2.56-0.861 5.4-1.81 10.8-3.61 16.2-5.4 5.12-1.69 5.12-1.69 10.2-3.43 2.8-0.438 5.24 0.124 8 0.688z" fill="#F67F0B"/>
<path transform="translate(369,691)" d="m0 0h2c1.41 1.8 1.41 1.8 3.06 4.31 7.86 11.5 16.6 21.6 27.9 29.7 0.704 0.532 1.41 1.06 2.13 1.61 34.9 25.7 80.9 31.3 123 25.4 18.6-3.31 36.9-8.74 53.4-18.1 2.56-0.941 2.56-0.941 4.9-0.102 0.822 0.574 0.822 0.574 1.66 1.16-0.722 0.557-1.44 1.11-2.19 1.69-3.64 2.99-6.84 6.32-10.1 9.69-13 12.7-13 12.7-18.7 14.6-0.66 0.99-1.32 1.98-2 3-1.67 0.968-3.34 1.93-5.04 2.85-1.99 1.17-3.68 2.48-5.47 3.93-5.03 3.81-10.5 6.35-16.2 8.97-2.04 0.953-4.07 1.91-6.11 2.86-0.892 0.412-1.78 0.824-2.7 1.25-1.56 0.731-3.11 1.5-4.63 2.31-1.81 0.835-1.81 0.835-3.94 0.585-1.88-0.75-1.88-0.75-3.88-2.75 2.2-1.79 4.01-3 6.69-4 1.14-0.495 1.14-0.495 2.31-1 0.33-0.99 0.66-1.98 1-3h-3v-3c-3.93 0.575-3.93 0.575-7 3-2.5-0.242-2.5-0.242-5.44-0.875-2.97-0.626-5.52-1.12-8.56-1.12v2c-3.76 1.25-7.27 1.11-11.2 1.06-0.75-0.00451-1.5-0.00902-2.27-0.0137-1.85-0.0118-3.69-0.0297-5.54-0.0488v2c-1.98 0.33-3.96 0.66-6 1v-2c-0.713 0.144-1.43 0.289-2.16 0.438-5.38 1.04-10.4 1.81-15.8 1.56v-2c-4.39-0.702-8.56-1.11-13-1 0.66-0.33 1.32-0.66 2-1v-2h-2v-2c-6.93-0.99-6.93-0.99-14-2v-2h-2v-3c-0.626-0.0606-1.25-0.121-1.9-0.184-0.817-0.0838-1.63-0.168-2.48-0.254-1.22-0.122-1.22-0.122-2.46-0.246-2.16-0.316-2.16-0.316-4.16-1.32-0.99 0.33-1.98 0.66-3 1l-2-2c0-4 0-4 1-5-2.97-0.66-5.94-1.32-9-2-0.33-1.32-0.66-2.64-1-4 1.49 0.495 1.49 0.495 3 1 0.33-0.66 0.66-1.32 1-2h2v2h3c-1.39-2.78-3.16-2.98-6-4 0.33-0.66 0.66-1.32 1-2h4c-0.99-0.33-1.98-0.66-3-1v-3c-1.36 0.0619-1.36 0.0619-2.75 0.125-3.13-0.12-4.64-0.516-7.25-2.12v-2c-2.97 0.495-2.97 0.495-6 1-0.99-3.47-0.99-3.47-2-7-1.32-0.33-2.64-0.66-4-1 0.0825-0.928 0.165-1.86 0.25-2.81-0.0825-1.05-0.165-2.1-0.25-3.19-1.32-1.02-2.65-2.02-4-3-0.75-3.19-0.75-3.19-1-6-0.99-0.33-1.98-0.66-3-1-2.45-5.75-2.1-10.9-1-17 0.33-0.66 0.66-1.32 1-2h-2c0.33-1.65 0.66-3.3 1-5z" fill="#F67F0B"/>
<path transform="translate(746,908)" d="m0 0c0.99 0.33 1.98 0.66 3 1-0.819 6.05-1.64 12.1-2.47 18.1-0.383 2.8-0.764 5.6-1.14 8.4-0.554 4.08-1.11 8.16-1.67 12.2-0.225 1.64-0.448 3.28-0.67 4.93-0.315 2.33-0.635 4.66-0.956 6.99-0.142 1.06-0.142 1.06-0.287 2.14-0.685 4.93-0.685 4.93-1.8 7.15-0.047 1.62-0.0384 3.25-9.77e-4 4.87 0.0554 6.12-0.445 12.1-0.983 18.2-1.19 14.8-1.32 29.5-1.28 44.3 0.0114 3.63 0.00458 7.25-0.00687 10.9-0.0456 17 0.379 33.9 2.27 50.8 0.127 1.14 0.127 1.14 0.256 2.3 0.536 4.66 1.18 9.31 1.87 14 0.101 0.69 0.203 1.38 0.308 2.09 1.76 11.9 4.09 23.6 6.69 35.3 0.255 1.15 0.255 1.15 0.515 2.33 1.68 7.54 3.39 14.9 6.36 22 0.471 1.26 0.935 2.52 1.39 3.79 5.23 15.8 5.23 15.8 13.3 30 2.8 3.86 4.04 7.63 5.31 12.2-4.72-1.4-8.83-3.41-13.1-5.88-0.599-0.339-1.2-0.678-1.81-1.03-3.65-2.1-6.89-4.42-10.1-7.1-1.83-1.36-3.66-2.71-5.5-4.06-4.63-3.46-9.14-7.03-13.6-10.8-0.822-0.684-0.822-0.684-1.66-1.38-2.82-2.39-5.21-4.74-7.28-7.81 1.65 0.66 3.3 1.32 5 2-0.351-0.928-0.701-1.86-1.06-2.81-0.938-3.19-0.938-3.19 0.0625-6.19 1.11 0.0206 2.23 0.0412 3.38 0.0625 3.46 0.201 3.46 0.201 5.62-1.06v4h2c-0.33-2.97-0.66-5.94-1-9-1.32-0.33-2.64-0.66-4-1 0.0838-0.603 0.168-1.21 0.254-1.83 0.102-0.799 0.204-1.6 0.309-2.42 0.104-0.789 0.209-1.58 0.316-2.39 0.121-2.36-0.183-4.11-0.879-6.36-0.99 0.99-0.99 0.99-2 2-3.68-13.8-3.68-13.8-2-20 0.33-0.33 0.66-0.66 1-1-0.163-1.92-0.163-1.92-0.594-4.18-0.143-0.845-0.286-1.69-0.434-2.56-0.314-1.79-0.63-3.58-0.945-5.38-0.143-0.846-0.286-1.69-0.434-2.56-0.137-0.779-0.275-1.56-0.416-2.36-0.178-1.96-0.178-1.96 0.822-3.96h-2c-0.771-4.72-1.1-9.22-1-14h2c2.6-3.9 1.7-5.48 1-10 0.333-1.67 0.667-3.33 1-5-0.322-3.54-0.852-6.59-2.06-9.94-1.18-3.87-1.08-7.03-0.938-11.1-1.45 1.45-1.56 3.04-2 5-0.66-0.33-1.32-0.66-2-1 0.0309-1.61 0.0309-1.61 0.0625-3.25 0.0225-9.61 0.0225-9.61-1.72-19-0.112-0.583-0.224-1.17-0.34-1.77 0.99-0.99 0.99-0.99 2-2 0.0231-2.22 0.0231-2.22-0.375-4.62-0.111-0.817-0.222-1.63-0.336-2.48-0.0954-0.626-0.191-1.25-0.289-1.9h-2c-2.38-4.76-1.33-12 0-17 0.66 0.33 1.32 0.66 2 1v6h2c0.049-0.71 0.098-1.42 0.148-2.15 0.112-1.38 0.112-1.38 0.227-2.79 0.0696-0.917 0.139-1.83 0.211-2.78 0.205-1.13 0.205-1.13 0.414-2.29 0.99-0.495 0.99-0.495 2-1 0.33 0.99 0.66 1.98 1 3 0.363-1.46 0.715-2.92 1.06-4.38 0.197-0.812 0.394-1.62 0.598-2.46 0.561-2.21 0.561-2.21-0.66-4.16-0.0468-2.53-0.0441-5.04 0-7.56 0.0547-4.63 0.0362-9.1-0.625-13.7-0.38-3.8-0.181-4.63 1.62-7.75 0.33 0.66 0.66 1.32 1 2 2.24-7.38 2.24-7.38 3-15 0.431-4.24 1-8.2 2.12-12.3 1.2-3.6 1.2-3.6-0.125-6.69 0.598-2.35 1.26-4.69 2-7-0.99 0.33-1.98 0.66-3 1-0.66-1.98-1.32-3.96-2-6l2-2c0.99 0.33 1.98 0.66 3 1-0.186-1.03-0.371-2.06-0.562-3.12-0.411-3.64-0.216-6.33 0.562-9.88 0.99-0.33 1.98-0.66 3-1 0.66-0.99 1.32-1.98 2-3h3c-0.0309-1.7-0.0309-1.7-0.0625-3.44 0.0625-3.56 0.0625-3.56 1.06-4.56z" fill="#F67F0B"/>
<path transform="translate(1289,1019)" d="m0 0c0.495 0.99 0.495 0.99 1 2h2c0.99 6.43 0.99 6.43 2 13-1.32 0.66-2.64 1.32-4 2-1.66 1.9-1.66 1.9-3 4-0.66 0.99-1.32 1.98-2 3h-2c-0.754 4.98-0.754 4.98-1 10h2v-2h2c0.495-0.495 0.495-0.495 1-1 0.557 0.392 1.11 0.784 1.69 1.19 0.763 0.268 1.53 0.536 2.31 0.812 2.54-1.36 2.54-1.36 5-3h4c0.364 4.83-0.282 7.07-3.25 10.9-3.16 4.23-5.54 8.34-7.75 13.1h-2c-0.268 0.969-0.536 1.94-0.812 2.94-0.588 1.52-0.588 1.52-1.19 3.06-0.99 0.33-1.98 0.66-3 1-0.374 1.32-0.702 2.66-1 4-1.18 1.76-1.18 1.76-2.66 3.54-0.543 0.659-1.09 1.32-1.65 2-0.58 0.69-1.16 1.38-1.76 2.09-1.19 1.43-2.37 2.86-3.55 4.29-0.868 1.04-0.868 1.04-1.75 2.11-2.79 3.39-5.47 6.87-8.14 10.4-0.491 0.536-0.982 1.07-1.49 1.62h-2c-0.268 0.639-0.536 1.28-0.812 1.94-1.19 2.06-1.19 2.06-4.19 3.06-0.33 0.66-0.66 1.32-1 2-0.33 0.66-0.66 1.32-1 2-1.48 0.495-1.48 0.495-3 1-0.464 0.99-0.464 0.99-0.938 2-0.526 0.99-0.526 0.99-1.06 2-1.33 0.333-2.67 0.667-4 1-0.33 0.66-0.66 1.32-1 2-0.33 0.66-0.66 1.32-1 2-1.33 0.333-2.67 0.667-4 1-0.699 1.32-1.37 2.65-2 4-1.48 0.495-1.48 0.495-3 1-0.66-0.33-1.32-0.66-2-1v-2c-1.98-0.33-3.96-0.66-6-1-0.201-3.63 0.142-5.87 2-9-0.66-0.33-1.32-0.66-2-1 1.61-0.402 1.61-0.402 3.25-0.812 3.32-1.05 5.19-1.93 7.75-4.19 0.66 0.33 1.32 0.66 2 1 0.0928-1.42 0.0928-1.42 0.188-2.88 0.268-1.03 0.536-2.06 0.812-3.12 2.44-1.12 2.44-1.12 5-2 0.277-0.652 0.554-1.3 0.84-1.98 1.16-2.02 1.16-2.02 3.54-2.85 1.36-0.209 1.36-0.209 2.74-0.422 0.91-0.15 1.82-0.299 2.76-0.453 0.699-0.098 1.4-0.196 2.12-0.297-0.33-1.32-0.66-2.64-1-4 1.18-0.557 1.18-0.557 2.38-1.12 3.23-2.31 3.7-4.09 4.62-7.88h2v-5h2c-0.33-1.65-0.66-3.3-1-5 2.97-0.495 2.97-0.495 6-1v-2.25c1-2.75 1-2.75 2.81-3.8 0.722-0.315 1.44-0.629 2.19-0.953 2.16-0.916 2.16-0.916 4-2 1.08-2.4 1.08-2.4 1-5 0.227-0.887 0.454-1.77 0.688-2.69 0.103-0.763 0.206-1.53 0.312-2.31-0.66-0.66-1.32-1.32-2-2-3.12 0.646-3.12 0.646-4 3h-6c-0.247-0.969-0.495-1.94-0.75-2.94-0.412-1.01-0.825-2.02-1.25-3.06-2.03-0.969-2.03-0.969-4-1 0.588-3.02 1.23-6.02 2-9-0.928-0.217-0.928-0.217-1.88-0.438-2.12-0.562-2.12-0.562-4.12-1.56 1.01-2.68 1.54-3.78 4.16-5.05 0.812-0.232 1.62-0.464 2.46-0.703 0.817-0.242 1.63-0.485 2.48-0.734 0.626-0.17 1.25-0.34 1.9-0.516 0.495 2.47 0.495 2.47 1 5 2.97-0.66 5.94-1.32 9-2v-3h5c0.33-1.98 0.66-3.96 1-6-0.66-0.33-1.32-0.66-2-1v-4h2l-1-1c-0.495-1.49-0.495-1.49-1-3 1.98-0.66 3.96-1.32 6-2z" fill="#00C3F0"/>
<path transform="translate(570 294)" d="m0 0c0.873 8.06e-5 1.75 1.61e-4 2.65 2.44e-4 25.5 0.216 25.5 0.216 31.5 3.19v2c-0.71 0.193-1.42 0.387-2.15 0.586-1.38 0.391-1.38 0.391-2.79 0.789-0.917 0.255-1.83 0.51-2.78 0.773-2.45 0.618-2.45 0.618-3.29 2.85h-5c0.165 0.577 0.33 1.15 0.5 1.75 0.5 2.25 0.5 2.25 0.5 6.25-0.99-0.33-1.98-0.66-3-1v-2h-3c1.45 1.14 1.45 1.14 2.94 2.31 2.48 1.95 3.01 2.54 4.06 5.69-0.33 0.66-0.66 1.32-1 2h-2v2c0.99-0.33 1.98-0.66 3-1v2l2 1v2c-3.96 0.495-3.96 0.495-8 1-0.81 2.91-1.22 4.46-0.0625 7.31 0.351 0.557 0.701 1.11 1.06 1.69-1.65 0.99-3.3 1.98-5 3h4v2c-2.96 0.361-5.92 0.714-8.88 1.06-0.842 0.104-1.68 0.208-2.55 0.314-0.806 0.0935-1.61 0.187-2.44 0.283-1.12 0.134-1.12 0.134-2.25 0.27-1.88 0.0701-1.88 0.0701-3.88-0.93-0.33 0.66-0.66 1.32-1 2-1.98-0.66-3.96-1.32-6-2 0.33-0.66 0.66-1.32 1-2h8v-1h-9v-2h-8c0.66-0.66 1.32-1.32 2-2-2.9-1.41-4.41-2.13-7.62-1.44-0.784 0.144-1.57 0.289-2.38 0.438-1.02-0.979-2.02-1.98-3-3-2.63-0.251-2.63-0.251-5 0 0.73-1.96 0.73-1.96 2-4 1.99-0.539 1.99-0.539 4.31-0.625 3.6-0.26 6.5-0.539 9.69-2.38 1.3-1.93 1.3-1.93 2-4 0.33-0.66 0.66-1.32 1-2h-3c-0.33-1.32-0.66-2.64-1-4h-6v-4h3c1.65-2.98 2.38-5.66 3-9 0.33-0.66 0.66-1.32 1-2h11l-2-1v-2c3.96-1.32 7.75-1.19 11.9-1.19z" fill="#F67F0B"/>
<path transform="translate(897,989)" d="m0 0c0.99 0.33 1.98 0.66 3 1-0.33 1.32-0.66 2.64-1 4h5v3c1.49 0.495 1.49 0.495 3 1-0.0722 0.931-0.144 1.86-0.219 2.82-2.06 30-2.31 60.8 3.9 90.3 0.917 4.38 1.54 8.37 1.32 12.9-3.62-4.18-4.52-8.86-5.94-14.1-0.841-3.18-0.841-3.18-4.06-4.9-0.688-3.62-0.688-3.62-1-7-1.32-0.33-2.64-0.66-4-1 0.99-0.495 0.99-0.495 2-1 0.66 0.33 1.32 0.66 2 1 0.0541-1.94 0.0928-3.87 0.125-5.81 0.0232-1.08 0.0464-2.16 0.0703-3.27 0.0349-3.11 0.0349-3.11-2.2-5.92-0.66-0.99-1.32-1.98-2-3-2.7-1.93-3.78-2.03-7.12-1.56-0.949 0.186-1.9 0.371-2.88 0.562-0.66-0.33-1.32-0.66-2-1-0.731-2.31-1.4-4.65-2-7-1.98-0.33-3.96-0.66-6-1 0.66-0.66 1.32-1.32 2-2 0.648-2.57 0.648-2.57 1-5h-2c-0.33-1.32-0.66-2.64-1-4-1.32-0.33-2.64-0.66-4-1l1-2h2c0.0619-0.887 0.124-1.77 0.188-2.69 0.812-3.31 0.812-3.31 3.25-5.5 3.73-4.09 3.93-8.44 4.56-13.8-1.32 0.99-2.64 1.98-4 3 0.312-1.88 0.312-1.88 1-4 0.99-0.66 1.98-1.32 3-2 1.3-1.15 1.3-1.15 2-4-0.0954-2.16-0.0954-2.16-0.438-4.44-0.393-2.94-0.562-5.57-0.562-8.56 0.782-0.205 1.56-0.41 2.37-0.621 1.01-0.269 2.02-0.539 3.07-0.816 1.01-0.267 2.02-0.534 3.06-0.809 2.42-0.514 2.42-0.514 3.5-1.75z" fill="#00CAF7"/>
<path transform="translate(808,944)" d="m0 0c1.34 0.647 2.67 1.32 4 2 0.863 0.41 1.73 0.819 2.61 1.24 2.39 1.76 2.39 1.76 2.95 4.21-0.0262 0.948-0.0524 1.9-0.0793 2.87-0.0161 1.03-0.0322 2.06-0.0488 3.12-0.0419 1.07-0.0838 2.14-0.127 3.25-0.0338 1.63-0.0338 1.63-0.0684 3.28-0.059 2.68-0.141 5.35-0.244 8.03l-2-2c-0.76 3.72-1.17 6.38 0 10 0.144 0.763 0.289 1.53 0.438 2.31 0.55 2.84 0.55 2.84 1.62 6.12 0.913 3.47 1.32 6.01 0.938 9.56-0.495 0.745-0.99 1.49-1.5 2.26-3.81 6.96-1.79 16.5 0.191 23.9 0.451 2.67-0.535 4.45-1.69 6.83 0.267 2.76 1.25 4.47 2.56 6.94 1.43 3.05 1.73 4.76 1.44 8.06-2.49 1.25-3.41 0.777-6 0-0.33 1.32-0.66 2.64-1 4v-4h-2c-0.495 0.99-0.495 0.99-1 2-1.67-1.67-3.33-3.33-5-5-0.66-0.33-1.32-0.66-2-1-0.326-19.6-0.211-39.1 1.38-58.7 0.0948-1.18 0.0948-1.18 0.192-2.38 0.436-5.32 0.92-10.6 1.43-15.9 0.0829-0.861 0.166-1.72 0.251-2.61 0.257-2.64 0.521-5.27 0.788-7.91 0.0807-0.819 0.161-1.64 0.244-2.48 0.6-5.77 0.6-5.77 1.72-8z" fill="#00C9F6"/>
<path transform="translate(821,376)" d="m0 0c4.6 0.576 8.14 2.55 12.1 4.88 0.612 0.352 1.22 0.704 1.85 1.07 3.18 1.85 6.18 3.8 9.08 6.06 1.11 0.65 1.11 0.65 2.25 1.31 2.99 1.83 5.71 3.89 8.5 6.01 2.44 1.81 4.93 3.53 7.44 5.24 3.66 2.55 6.77 5.15 9.81 8.44 3.82 3.92 7.62 7.74 11.9 11.2 2.78 2.31 4.18 4.24 5.12 7.81-2.52-1.12-4.36-2.3-6.5-4.06-2.42-1.88-3.63-2.27-6.5-2.94l-3-3c-0.825-0.33-1.65-0.66-2.5-1-2.5-1-2.5-1-3.94-2.56-2.28-2.1-4.56-2.1-7.56-2.44 0.0619-0.928 0.124-1.86 0.188-2.81 0.0931-3.12 0.0931-3.12-1.44-5-1.71-1.31-1.71-1.31-3.88-1.69-0.928-0.248-0.928-0.248-1.88-0.5-0.33-0.99-0.66-1.98-1-3-3.19-2.13-5.27-2.5-9-3 0.186 0.598 0.371 1.2 0.562 1.81 0.438 2.19 0.438 2.19-0.562 5.19h2c0.268 0.598 0.536 1.2 0.812 1.81 1.06 2.22 1.06 2.22 2.75 3.69 1.44 1.5 1.44 1.5 1.81 3.5 0.471 2.3 0.471 2.3 3.19 3.5 0.804 0.495 1.61 0.99 2.44 1.5v4h10c2 4 2 4 1.62 6.25-0.206 0.577-0.413 1.15-0.625 1.75-0.835-0.495-0.835-0.495-1.69-1-2.66-1.33-2.66-1.33-7.31-1-0.495 4.95-0.495 4.95-1 10l-3-3c0.495 3.47 0.495 3.47 1 7-0.99-0.33-1.98-0.66-3-1v6c-1.49-0.495-1.49-0.495-3-1-0.922-2.46-0.922-2.46-1.75-5.81-3.77-14.2-8.84-27.7-14.9-41.1-0.463-1.02-0.927-2.03-1.4-3.08-2.32-4.99-4.79-9.52-7.91-14-0.75-2.88-0.75-2.88-1-5z" fill="#00C9F6"/>
<path transform="translate(354,573)" d="m0 0c1.82 3.06 2.19 4.77 1.54 8.25-0.142 0.841-0.284 1.68-0.431 2.55-0.159 0.911-0.319 1.82-0.483 2.76-2.95 19-5.62 46.3 2.38 64.4 0.533 5.33 0.533 5.33-1.5 7.88-0.743 0.557-0.743 0.557-1.5 1.12-0.33-1.32-0.66-2.64-1-4h-3c-0.124-1.13-0.248-2.27-0.375-3.44-0.206-1.18-0.413-2.35-0.625-3.56-0.66-0.33-1.32-0.66-2-1-0.495 0.99-0.495 0.99-1 2v-2h-5l1-2c2-0.333 4-0.667 6-1 0.495-0.99 0.495-0.99 1-2h-2v2c-0.928-0.278-0.928-0.278-1.88-0.562-2.17-0.674-2.17-0.674-4.12 0.562-0.185-15.7-0.185-15.7 1-23-0.33 0.66-0.66 1.32-1 2-0.66-0.33-1.32-0.66-2-1v-5c1.49-0.495 1.49-0.495 3-1v-11c-0.66-0.33-1.32-0.66-2-1 0.33-0.99 0.66-1.98 1-3 0.99-0.33 1.98-0.66 3-1v-12c1.32-0.66 2.64-1.32 4-2 1.09-1.93 1.09-1.93 2-4 0.536-0.454 1.07-0.908 1.62-1.38 2.05-2.42 1.51-4.56 1.38-7.62 0.33-0.33 0.66-0.66 1-1z" fill="#F67F0B"/>
<path transform="translate(597,330)" d="m0 0c1.7 0.226 3.41 0.409 5.12 0.562 0.91 0.0838 1.82 0.168 2.76 0.254 0.699 0.0606 1.4 0.121 2.12 0.184 0.0606 0.615 0.121 1.23 0.184 1.86 0.126 1.21 0.126 1.21 0.254 2.45 0.0812 0.801 0.162 1.6 0.246 2.43 0.269 2.42 0.269 2.42 1.32 5.26h6c-0.33-0.66-0.66-1.32-1-2 1.88 0.25 1.88 0.25 4 1 1.25 2.06 1.25 2.06 2 4 0.33-0.66 0.66-1.32 1-2 0.66 0.66 1.32 1.32 2 2 2.07 0.643 2.07 0.643 4 1v2c-2.49 0.687-4.38 1-7 1 2.31 0.66 4.62 1.32 7 2v2c-9.17 0.63-9.17 0.63-12.6-2-0.681-0.99-0.681-0.99-1.38-2-0.99 0.66-1.98 1.32-3 2-0.99-0.33-1.98-0.66-3-1v-2h-5c0-3 0-3 1-4h-2c-0.33 0.99-0.66 1.98-1 3-2.38 0.125-2.38 0.125-5 0-0.66-0.66-1.32-1.32-2-2v-3h-2v2h-2v-2h-2c-0.33-1.32-0.66-2.64-1-4h2c0.33-0.99 0.66-1.98 1-3h2c0.33-0.99 0.66-1.98 1-3l-2-1v2h-2v2l-2-1c0.33-0.66 0.66-1.32 1-2h2c0.33-0.99 0.66-1.98 1-3 4.75-1.12 4.75-1.12 7 0z" fill="#F67F0B"/>
<path transform="translate(1152,832)" d="m0 0c0.804 0.186 1.61 0.371 2.44 0.562 4.35 0.534 8.24-0.00904 12.6-0.562 4.29-0.39 6.52 0.415 10 3v2h-3c3 1.33 3 1.33 6 0v2c0.99 0.33 1.98 0.66 3 1l2 1c1.15-0.0412 2.31-0.0825 3.5-0.125 1.73 0.0619 1.73 0.0619 3.5 0.125 0.66 0.99 1.32 1.98 2 3h-2c0.495 1.49 0.495 1.49 1 3h-5v5h5v1h-6v-5c-1.24 0.206-2.47 0.413-3.75 0.625-3.37 0.436-5.38 0.409-8.25-1.62v-3c-1.42-1.58-1.42-1.58-3-3-0.33-0.66-0.66-1.32-1-2-1.65 0.33-3.3 0.66-5 1v1h-10c-0.33-1.32-0.66-2.64-1-4h-2c-0.33-1.65-0.66-3.3-1-5z" fill="#00C3F0"/>
<path transform="translate(810,1065)" d="m0 0h1c0.33 1.65 0.66 3.3 1 5 0.33-1.65 0.66-3.3 1-5h1c1.45 4.54 2.24 8.18 2 13-0.33-1.32-0.66-2.64-1-4h-2c0.66 5.28 1.32 10.6 2 16h-2c-0.124 1.24-0.247 2.47-0.375 3.75-0.382 3.13-0.93 5.54-2.62 8.25v-4h-3c-0.824-6.38-1.12-12.6-1-19 0.66-0.33 1.32-0.66 2-1 0.41-2.32 0.731-4.66 1-7 0.327-2 0.659-4 1-6z" fill="#00C9F6"/>
<path transform="translate(296,445)" d="m0 0c1.32 0.33 2.64 0.66 4 1 0.66 2.31 1.32 4.62 2 7-0.639 0.598-1.28 1.2-1.94 1.81-2.27 2.1-2.27 2.1-3.06 5.19-2.06 0.688-2.06 0.688-4 1v5c-0.99-0.33-1.98-0.66-3-1-0.66 1.32-1.32 2.64-2 4h-2c-1.11-4.02-1.4-6.21 0.562-10.1 2.87-4.83 6.17-9.37 9.44-13.9z" fill="#F07D0E"/>
<path transform="translate(893,432)" d="m0 0c4.76 3.39 7.97 7.5 11.4 12.1 0.578 0.765 1.16 1.53 1.75 2.32 3.99 5.33 7.58 10.7 10.8 16.6 0.587 0.982 1.17 1.96 1.78 2.98 4.25 7.19 8.04 14.6 11.7 22.1 0.437 0.905 0.875 1.81 1.33 2.74 0.407 0.86 0.814 1.72 1.23 2.61 0.363 0.764 0.726 1.53 1.1 2.32 0.959 2.41 1.47 4.72 1.9 7.27-0.99 0.495-0.99 0.495-2 1-0.289-0.784-0.577-1.57-0.875-2.38-0.974-2.72-0.974-2.72-3.12-4.62-0.667-2-1.33-4-2-6-0.66-0.66-1.32-1.32-2-2-0.852-2.02-0.852-2.02-1.62-4.38-0.391-1.16-0.391-1.16-0.789-2.34-0.586-2.29-0.586-2.29-0.586-6.29-0.625-0.24-1.25-0.48-1.89-0.727-2.67-1.62-2.89-2.7-3.79-5.65-2.08-5.7-5.34-9.91-9.06-14.7-2.64-3.48-4.82-7.11-6.96-10.9-1.21-2.1-1.21-2.1-2.95-3.71-1.34-1.35-1.34-1.35-1.34-3.35-0.99-0.33-1.98-0.66-3-1-0.688-2.06-0.688-2.06-1-4z" fill="#00CAF7"/>
<path transform="translate(271,629)" d="m0 0c1.94 0.688 1.94 0.688 4 2 3.38 10.1 0.828 23.4 0 34h-4c-1.51-11.9-1.73-24.1 0-36z" fill="#F7800B"/>
<path transform="translate(878,586)" d="m0 0h5c-0.33 1.32-0.66 2.64-1 4 1.65 0.33 3.3 0.66 5 1v9h-2v2c0.66 0.33 1.32 0.66 2 1-1.29 1.38-2.63 2.71-4 4h-2v5c-0.33-1.32-0.66-2.64-1-4h-2c-0.931-2.61-1.15-3.64-0.0625-6.25 0.351-0.577 0.701-1.15 1.06-1.75h-3c0.33-1.32 0.66-2.64 1-4h1c-0.278-1.08-0.278-1.08-0.562-2.19-0.457-2.94-0.173-4.95 0.562-7.81z" fill="#00C3F0"/>
<path transform="translate(787,709)" d="m0 0h1c1.06 6.85 0.89 12.3-1 19-0.863 3.31-1.46 6.62-2 10-0.99-0.33-1.98-0.66-3-1 0.33-2.31 0.66-4.62 1-7-1.98-0.66-3.96-1.32-6-2v-8c0.99-0.33 1.98-0.66 3-1 1.21-2 1.21-2 2-4 0.33 0.99 0.66 1.98 1 3h2c-0.33-0.99-0.66-1.98-1-3 1.44-3.19 1.44-3.19 3-6z" fill="#F67F0B"/>
<path transform="translate(664,756)" d="m0 0h2c0.33 1.32 0.66 2.64 1 4h4c0.66 2.31 1.32 4.62 2 7-0.784 0.763-1.57 1.53-2.38 2.31-2.7 2.6-2.7 2.6-4.62 5.69v-2h-2c0.33 0.99 0.66 1.98 1 3-1.94-0.375-1.94-0.375-4-1-1.63-3.27-0.31-6.61 0.375-10.1 0.139-0.746 0.278-1.49 0.422-2.26 1.07-5.54 1.07-5.54 2.2-6.68z" fill="#F67F0B"/>
<path transform="translate(781,756)" d="m0 0c-0.115 1.75-0.242 3.5-0.375 5.25-0.0696 0.975-0.139 1.95-0.211 2.95-0.406 2.74-1.17 4.37-2.41 6.8-0.35 2.33-0.5 4.63-0.656 6.98-0.344 2.02-0.344 2.02-2.34 4.02v-8h-2c-0.124-0.969-0.247-1.94-0.375-2.94-0.206-1.01-0.413-2.02-0.625-3.06-0.66-0.33-1.32-0.66-2-1 0.33-0.66 0.66-1.32 1-2h-2c0.359-2.61 0.768-3.78 2.69-5.62 2.74-1.63 6.04-3.38 9.31-3.38z" fill="#F67F0B"/>
<path transform="translate(377,740)" d="m0 0h5c-0.375 2.44-0.375 2.44-1 5l-2 1v-3h-3v3h2c-0.33 2.31-0.66 4.62-1 7h-10c-0.99-3.3-1.98-6.6-3-10 3.7-1.23 6.18-0.546 10 0 0.99-0.33 1.98-0.66 3-1v-2z" fill="#F67F0B"/>
<path transform="translate(643,928)" d="m0 0c1.03 4.24 1.15 8.35 1.12 12.7-0.00193 0.73-0.00387 1.46-0.00586 2.21-0.0641 8.38-0.571 16.7-1.12 25.1h-3v-39c2-1 2-1 3-1z" fill="#F7800B"/>
<path transform="translate(496,783)" d="m0 0h7v2c1.32 0.66 2.64 1.32 4 2-3.66 3.25-6.81 4.87-11.5 6.25-1.1 0.335-2.21 0.67-3.34 1.02-2.86 0.667-5.23 0.887-8.16 0.734-0.33-1.32-0.66-2.64-1-4 0.577-0.103 1.15-0.206 1.75-0.312 2.35-0.577 2.35-0.577 4.31-2.25 1.94-1.44 1.94-1.44 4.94-1.44l2-4z" fill="#F67F0B"/>
<path transform="translate(859,1091)" d="m0 0c1.65 0.449 3.29 0.909 4.94 1.38 0.917 0.255 1.83 0.51 2.78 0.773 2.29 0.852 2.29 0.852 3.29 2.85 0.66 0.33 1.32 0.66 2 1-0.33 3.3-0.66 6.6-1 10h-8c-0.124-0.639-0.247-1.28-0.375-1.94-0.309-1.52-0.309-1.52-0.625-3.06-0.218-1.14-0.218-1.14-0.441-2.3-0.164-0.808-0.327-1.62-0.496-2.45-0.153-0.779-0.307-1.56-0.465-2.36-0.197-0.624-0.394-1.25-0.598-1.89-0.66-0.33-1.32-0.66-2-1 0.33-0.33 0.66-0.66 1-1z" fill="#00C9F6"/>
<path transform="translate(883,1069)" d="m0 0h3v2c0.99 0.33 1.98 0.66 3 1 0.33 2.31 0.66 4.62 1 7-0.99 0.33-1.98 0.66-3 1-0.33 1.65-0.66 3.3-1 5-6.75-0.875-6.75-0.875-9-2l3-6h-2c0-2 0-2 1.38-3.44 0.536-0.516 1.07-1.03 1.62-1.56 0.66-0.99 1.32-1.98 2-3z" fill="#00CAF7"/>
<path transform="translate(753,867)" d="m0 0c1.32 0.66 2.64 1.32 4 2-0.779 4.46-1.58 8.92-2.38 13.4-0.222 1.27-0.443 2.54-0.672 3.85-0.219 1.21-0.438 2.42-0.664 3.67-0.199 1.12-0.398 2.24-0.603 3.4-0.686 2.71-0.686 2.71-2.69 4.71-0.125-7.75-0.125-7.75 1-10h-2c-1.2-4.15-0.805-7.64-0.258-11.8 0.286-2.4 0.336-4.74 0.258-7.16l2 2c0.66-1.32 1.32-2.64 2-4z" fill="#F67F0B"/>
<path transform="translate(1246,812)" d="m0 0c13.9 5.67 24.9 14 36 24-2.99 0.936-3.69 1.14-6.69-0.188-2.31-1.81-2.31-1.81-3.12-4-0.0619-0.598-0.124-1.2-0.188-1.81h-2v-2c-2.65-1.08-5.28-2.09-8-3v-2c-0.887-0.124-1.77-0.247-2.69-0.375-3.08-0.581-5.56-1.13-8.31-2.62-0.333-1.33-0.667-2.67-1-4-2.49-1.3-2.49-1.3-5-2 0.33-0.66 0.66-1.32 1-2z" fill="#00CAF7"/>
<path transform="translate(457,799)" d="m0 0v2c-0.94 0.0909-0.94 0.0909-1.9 0.184-0.817 0.0838-1.63 0.168-2.48 0.254-0.812 0.0812-1.62 0.162-2.46 0.246-2.21 0.207-2.21 0.207-4.16 1.32-2.19 0.0978-4.39 0.131-6.58 0.133-0.977 0.00144-0.977 0.00144-1.97 0.0029-1.38 6.81e-4 -2.76-0.00117-4.14-0.00534-2.1-0.00532-4.2-6.53e-5 -6.3 0.00635-1.34-6.61e-4 -2.68-0.00194-4.03-0.00391-1.22-0.00113-2.44-0.00226-3.69-0.00342-2.89-0.114-5.48-0.46-8.29-1.13 3.25-2.17 4.35-2.28 8.13-2.41 1.03-0.0388 2.05-0.0775 3.11-0.117 1.64-0.0463 1.64-0.0463 3.32-0.0935 1.11-0.0379 2.23-0.0759 3.38-0.115 9.35-0.296 18.7-0.368 28.1-0.26z" fill="#F7800B"/>
<path transform="translate(928,619)" d="m0 0c2.31-0.25 2.31-0.25 5 0 1.81 1.56 1.81 1.56 3 4 0.188 3.75 0.188 3.75 0 7h-3l-2 2h3c-0.33 0.99-0.66 1.98-1 3-2.64-0.33-5.28-0.66-8-1 0.33-0.66 0.66-1.32 1-2 1.98 0.495 1.98 0.495 4 1v-3c-0.639-0.124-1.28-0.247-1.94-0.375-0.681-0.206-1.36-0.413-2.06-0.625-1.35-2.71-1.07-5.01-1-8 0.99 0.33 1.98 0.66 3 1v-3z" fill="#00CAF7"/>
<path transform="translate(934,658)" d="m0 0c2.56 2.06 2.56 2.06 5 5-0.188 3.81-0.188 3.81-1 7-2.97 0.66-5.94 1.32-9 2-2-3-2-3-1.81-5 0.919-2.26 2.07-3.33 3.81-5 0.33-0.99 0.66-1.98 1-3 0.66-0.33 1.32-0.66 2-1z" fill="#00C9F6"/>
<path transform="translate(951,570)" d="m0 0c5.5 5.5 4.5 18.5 5 26-0.99 0.66-1.98 1.32-3 2-2.73-6.22-3.42-11.2-3.25-17.9 0.00516-0.862 0.0103-1.72 0.0156-2.61 0.0794-6.3 0.0794-6.3 1.23-7.45z" fill="#00CAF7"/>
<path transform="translate(655,803)" d="m0 0c3.22 2.15 6.04 4.5 9 7-2.14 6.09-2.14 6.09-5 8-2.69-0.312-2.69-0.312-5-1-1.6-4.95-0.283-9.13 1-14z" fill="#F67F0B"/>
<path transform="translate(815,1136)" d="m0 0 4 2v-2c1.32 0.33 2.64 0.66 4 1 0.33 1.98 0.66 3.96 1 6h2v2c-1.65 0.33-3.3 0.66-5 1v3 5c-0.33-1.32-0.66-2.64-1-4h-2c-0.505-1.77-1-3.54-1.5-5.31-0.278-0.986-0.557-1.97-0.844-2.99-0.656-2.7-0.656-2.7-0.656-5.7z" fill="#00C3F0"/>
<path transform="translate(270,493)" d="m0 0c0.33 1.32 0.66 2.64 1 4 1.65-0.66 3.3-1.32 5-2 0.33 1.65 0.66 3.3 1 5-0.639 0.103-1.28 0.206-1.94 0.312-0.681 0.227-1.36 0.454-2.06 0.688-0.33 0.99-0.66 1.98-1 3-2.38-0.188-2.38-0.188-5-1-1.5-2.31-1.5-2.31-2-5 1.4-2.53 2.41-3.71 5-5z" fill="#F07D0E"/>
<path transform="translate(1e3 1235)" d="m0 0h10c-0.33 1.98-0.66 3.96-1 6-3.47 1.16-6.36 1.07-10 1 0.33-2.31 0.66-4.62 1-7z" fill="#00CAF7"/>
<path transform="translate(772,795)" d="m0 0c1.32 3.97 0.366 6.12-1 10-0.99 0.495-0.99 0.495-2 1-0.652 2.02-0.652 2.02-1 4-1.65-0.33-3.3-0.66-5-1v-7c1.11-0.413 2.23-0.825 3.38-1.25 2.62-1.11 3.46-1.5 5.06-3.94 0.186-0.598 0.371-1.2 0.562-1.81z" fill="#F67F0B"/>
<path transform="translate(1588,1574)" d="m0 0h2c-0.33 4.29-0.66 8.58-1 13h4c-0.186 0.578-0.371 1.15-0.562 1.75-0.479 2.47-0.0948 3.87 0.562 6.25l-1 1h-5c0.33-7.26 0.66-14.5 1-22z" fill="#FDFEFF"/>
<path transform="translate(821,376)" d="m0 0c3.34 0.557 6.03 1.35 9 3-0.375 2.94-0.375 2.94-1 6-0.99 0.495-0.99 0.495-2 1v-2c-1.32-0.33-2.64-0.66-4-1-0.66-2.31-1.32-4.62-2-7z" fill="#00C7F4"/>
<path transform="translate(363,676)" d="m0 0c2.66 1.33 2.98 2.69 4.19 5.38 0.365 0.791 0.73 1.58 1.11 2.4 0.707 2.23 0.707 2.23-0.293 5.23-1.88-0.312-1.88-0.312-4-1-2.24-3.35-2.17-3.91-1.62-7.69 0.111-0.808 0.222-1.62 0.336-2.45 0.0954-0.615 0.191-1.23 0.289-1.86z" fill="#F67F0B"/>
<path transform="translate(1210,864)" d="m0 0c2.88-0.188 2.88-0.188 6 0 0.66 0.99 1.32 1.98 2 3 0.99 0.33 1.98 0.66 3 1 0.33 2.97 0.66 5.94 1 9-0.99-0.33-1.98-0.66-3-1-0.908-2.48-1-4.34-1-7-0.33 0.66-0.66 1.32-1 2h-2v-3c-1.65-0.33-3.3-0.66-5-1v-3z" fill="#00C3F0"/>
<path transform="translate(1223,1106)" d="m0 0h9c-0.99 1.48-0.99 1.48-2 3v3h-7v-6z" fill="#00C3F0"/>
<path transform="translate(364 376)" d="m0 0c1.21 0.0309 1.21 0.0309 2.44 0.0625-3.61 4.69-3.61 4.69-5 6h-3c-0.33 1.32-0.66 2.64-1 4h-4c1.56-3.82 4.03-6.19 7-9 1-1 1-1 3.56-1.06z" fill="#F47F0C"/>
<path transform="translate(1214,1148)" d="m0 0h5v12c-0.99 0.495-0.99 0.495-2 1v-4h-2c0.206-0.557 0.412-1.11 0.625-1.69 0.482-2.97-0.359-4.63-1.62-7.31z" fill="#FDFEFF"/>
<path transform="translate(387,357)" d="m0 0h3v4c-1.43 0.841-2.87 1.67-4.31 2.5-1.2 0.696-1.2 0.696-2.43 1.41-2.26 1.09-2.26 1.09-5.26 1.09v-2c2.65-2.36 4.62-3.87 8-5 0.33-0.66 0.66-1.32 1-2z" fill="#F57F0B"/>
<path transform="translate(1200,848)" d="m0 0c5.75-0.125 5.75-0.125 8 1-0.33 0.99-0.66 1.98-1 3 0.33 0.99 0.66 1.98 1 3-2.31 0.25-2.31 0.25-5 0-1.81-1.81-1.81-1.81-3-4v-3z" fill="#00C3F0"/>
<path transform="translate(518,384)" d="m0 0h21v2c-10.4 0.495-10.4 0.495-21 1v-3z" fill="#F7800B"/>
<path transform="translate(763,833)" d="m0 0h1c0.346 5.65-0.566 9.03-3 14-0.99-0.66-1.98-1.32-3-2-0.188-2.62-0.188-2.62 0-5h2c0.99-2.31 1.98-4.62 3-7z" fill="#F67F0B"/>
<path transform="translate(483,794)" d="m0 0 1 2c-6.93 1.49-6.93 1.49-14 3v-2h3v-2c3.47-1.16 6.36-1.07 10-1z" fill="#F7800B"/>
<path transform="translate(671,721)" d="m0 0c0.99 0.33 1.98 0.66 3 1v9c-1.32-0.66-2.64-1.32-4-2-0.125-5.75-0.125-5.75 1-8z" fill="#F7800B"/>
<path transform="translate(376 367)" d="m0 0c0.897 0.309 0.897 0.309 1.81 0.625-3.17 3.54-5.17 5.59-10 6 4.05-7.33 4.05-7.33 8.19-6.62z" fill="#F57F0B"/>
<path transform="translate(1206,856)" d="m0 0 4 2v2c0.619 0.124 1.24 0.247 1.88 0.375 2.12 0.625 2.12 0.625 4.12 2.62-3.29 0.224-5.42 0.304-8.38-1.25-1.62-1.75-1.62-1.75-1.62-5.75z" fill="#00C3F0"/>
</svg>
