<?xml version="1.0" encoding="UTF-8"?>
<svg version="1.1" xmlns="http://www.w3.org/2000/svg" width="241" height="178">
<path d="M0 0 C79.53 0 159.06 0 241 0 C241 58.74 241 117.48 241 178 C161.47 178 81.94 178 0 178 C0 119.26 0 60.52 0 0 Z " fill="#02317D" transform="translate(0,0)"/>
<path d="M0 0 C40.26 0 80.52 0 122 0 C122 58.74 122 117.48 122 178 C85.04 178 48.08 178 10 178 C10 177.67 10 177.34 10 177 C10.89460937 176.75765625 11.78921875 176.5153125 12.7109375 176.265625 C25.79356548 172.63931021 39.52723677 168.69134218 48.62255859 157.89941406 C51.08431154 155.42392913 52.68050106 154.56559588 56.16943359 154.31884766 C57.74608743 154.3197874 59.32296262 154.35309441 60.8984375 154.4140625 C61.73339752 154.42255219 62.56835754 154.43104187 63.42861938 154.43978882 C66.07876145 154.47320609 68.72578802 154.54845544 71.375 154.625 C73.17834127 154.65511505 74.98173054 154.68248817 76.78515625 154.70703125 C81.19129286 154.77295809 85.59511946 154.87639204 90 155 C88.69635934 152.71340721 87.39209088 150.42717869 86.08666992 148.14160156 C84.9837002 146.20768989 83.88361844 144.27212837 82.78637695 142.33496094 C79.31758976 136.22034571 79.31758976 136.22034571 75.609375 130.25 C70.50418366 122.28092083 70.50418366 122.28092083 71.0625 117.6875 C71.2171875 116.99140625 71.371875 116.2953125 71.53125 115.578125 C72.17581545 112.03301503 72.10230346 108.52609573 72.0625 104.9375 C72.05347656 103.62652344 72.04445313 102.31554687 72.03515625 100.96484375 C72.02355469 99.98644531 72.01195312 99.00804688 72 98 C71.505 99.98 71.505 99.98 71 102 C70.34 102 69.68 102 69 102 C68.70867187 101.17757812 68.41734375 100.35515625 68.1171875 99.5078125 C65.67555633 92.8585905 62.99935824 86.87054882 59.13671875 80.92578125 C58 79 58 79 58 77 C56.36591673 75.30137484 54.69221379 73.64072181 53 72 C51.26497096 70.06774799 49.5360519 68.12999645 47.8125 66.1875 C42.99469659 60.83346421 37.80631735 56.28231649 32 52 C34.7890625 47.203125 34.7890625 47.203125 36.6875 45.375 C38.34523787 43.95513278 38.34523787 43.95513278 38 41 C34.97633096 39.96188874 31.99359067 38.99843185 28.88671875 38.23828125 C21.87622652 36.20960401 17.91246693 33.61627454 14.3125 27.25 C13.22895937 25.24267798 12.17914011 23.22245202 11.14746094 21.18798828 C9.08442817 17.25417985 6.73421547 13.48789647 4.4375 9.6875 C0 2.31402522 0 2.31402522 0 0 Z " fill="#00000" transform="translate(119,0)"/>
<path d="M0 0 C38.94 0 77.88 0 118 0 C116.02 3.63 114.04 7.26 112 11 C111.03683743 12.87641133 110.07902623 14.7556101 109.1328125 16.640625 C102.18957612 29.84754206 97.08092915 35.52894208 83 40 C72.77593131 45.09889287 62.49605908 53.86199912 57 64 C57.99 64.495 57.99 64.495 59 65 C59.24492188 64.2575 59.48984375 63.515 59.7421875 62.75 C62.82364511 56.01290013 71.25167302 49.94686768 78 47 C80.875 46.9375 80.875 46.9375 83 48 C83.99 49.98 83.99 49.98 85 52 C82.69 53.98 80.38 55.96 78 58 C78.33 58.33 78.66 58.66 79 59 C82.465 56.525 82.465 56.525 86 54 C84.42328611 58.39467064 82.17066852 62.28010363 79.75 66.25 C79.35031006 66.9087915 78.95062012 67.56758301 78.53881836 68.24633789 C71.06897866 80.496875 71.06897866 80.496875 69 83 C68.34 83 67.68 83 67 83 C66.96003906 83.77601562 66.92007813 84.55203125 66.87890625 85.3515625 C65.60206855 90.65185768 62.80496726 94.78049817 59.9375 99.375 C59.36966797 100.30183594 58.80183594 101.22867188 58.21679688 102.18359375 C56.81972384 104.461175 55.4139959 106.73290065 54 109 C51.12299277 107.63564605 49.19906998 106.3037876 47 104 C46.67 104 46.34 104 46 104 C46.15082031 105.11632812 46.30164062 106.23265625 46.45703125 107.3828125 C47.76245706 121.77832556 42.62392982 130.71093405 34.71386719 142.41845703 C31.99046146 146.5206354 29.49578472 150.75671075 27 155 C28.09876465 154.95286865 29.1975293 154.9057373 30.32958984 154.85717773 C34.44772061 154.69296827 38.56556969 154.59049939 42.68603516 154.50561523 C44.46127134 154.46064602 46.23617967 154.39944342 48.01025391 154.32104492 C62.77496237 153.68542298 62.77496237 153.68542298 68.17236328 156.87426758 C70.61285687 159.13622841 72.78611582 161.51950719 75 164 C77.57999794 165.88105964 80.28240897 167.3665358 83.125 168.8125 C83.83712646 169.18431396 84.54925293 169.55612793 85.28295898 169.93920898 C92.54894131 173.56301483 100.06173298 175.47217741 108 177 C108 177.33 108 177.66 108 178 C72.36 178 36.72 178 0 178 C0 119.26 0 60.52 0 0 Z " fill="#000000" transform="translate(0,0)"/>
<path d="M0 0 C0.66 0 1.32 0 2 0 C2 6.6 2 13.2 2 20 C3.485 20.495 3.485 20.495 5 21 C4.01 21 3.02 21 2 21 C2 32.88 2 44.76 2 57 C1.34 57 0.68 57 0 57 C0 45.45 0 33.9 0 22 C-3.63 21.67 -7.26 21.34 -11 21 C-13.35216839 20.40318115 -15.69782711 19.76739096 -18 19 C-18.36351563 20.03640625 -18.36351563 20.03640625 -18.734375 21.09375 C-20.21635972 24.49682603 -22.17975426 27.43948743 -24.25 30.5 C-28.58950605 37.0544714 -31.92962179 43.7514993 -35 51 C-34.01 51.495 -34.01 51.495 -33 52 C-34.32 52 -35.64 52 -37 52 C-41.69892955 66.71873754 -41.69892955 66.71873754 -43 82 C-35.06288986 84.73981931 -27.26218593 87.40554307 -19 89 C-19 89.33 -19 89.66 -19 90 C-27.01076575 90.54310276 -33.45993423 88.60038279 -41 86 C-41.99 85.67 -42.98 85.34 -44 85 C-41.91491828 100.68945779 -41.91491828 100.68945779 -38 116 C-35.18880696 116.6520027 -32.37624969 117.29670121 -29.5625 117.9375 C-28.77939453 118.11990234 -27.99628906 118.30230469 -27.18945312 118.49023438 C-21.79941266 119.71020238 -16.50233888 120.47675456 -11 121 C-11 121.33 -11 121.66 -11 122 C-9.35 122.33 -7.7 122.66 -6 123 C-6 123.33 -6 123.66 -6 124 C-12.07603399 124.21501947 -17.35340147 123.48259748 -23.25 122.0625 C-24.03890625 121.88009766 -24.8278125 121.69769531 -25.640625 121.50976562 C-29.10217124 120.70577473 -32.55356698 119.8664244 -36 119 C-35.814375 119.5775 -35.62875 120.155 -35.4375 120.75 C-34.95976454 123.20692525 -35.24270636 124.64397534 -36 127 C-39.61129538 126.39126228 -41.7278777 124.89845341 -44.5625 122.625 C-45.32691406 122.01914063 -46.09132812 121.41328125 -46.87890625 120.7890625 C-49 119 -49 119 -50.39326477 117.41520691 C-53.21772263 114.92743406 -57.00925715 115.5164521 -60.60546875 115.48828125 C-61.86427605 115.46135445 -61.86427605 115.46135445 -63.14851379 115.43388367 C-65.82812479 115.37971437 -68.50755702 115.34586427 -71.1875 115.3125 C-73.00458221 115.27933271 -74.8216408 115.2448436 -76.63867188 115.20898438 C-81.09231905 115.12398428 -85.54591259 115.05720498 -90 115 C-88.65033237 111.39765841 -87.03571453 108.17720315 -85.06640625 104.875 C-84.49986328 103.92109375 -83.93332031 102.9671875 -83.34960938 101.984375 C-82.75986328 100.99953125 -82.17011719 100.0146875 -81.5625 99 C-80.97662109 98.01515625 -80.39074219 97.0303125 -79.78710938 96.015625 C-75.14262626 88.21331512 -75.14262626 88.21331512 -73.32666016 85.49731445 C-71.84071157 82.70015433 -71.64922813 81.05860512 -71.70703125 77.91796875 C-71.71669922 76.98662109 -71.72636719 76.05527344 -71.73632812 75.09570312 C-71.76146484 74.13599609 -71.78660156 73.17628906 -71.8125 72.1875 C-71.82603516 71.20845703 -71.83957031 70.22941406 -71.85351562 69.22070312 C-71.88874688 66.81323375 -71.93800735 64.40690436 -72 62 C-68.63027953 63.53925503 -67.1842498 65.02147755 -65 68 C-64.34 68 -63.68 68 -63 68 C-61.01288402 64.58789799 -59.03671399 61.16958064 -57.0625 57.75 C-56.21655273 56.29787109 -56.21655273 56.29787109 -55.35351562 54.81640625 C-54.81533203 53.88183594 -54.27714844 52.94726562 -53.72265625 51.984375 C-53.22515869 51.12553711 -52.72766113 50.26669922 -52.21508789 49.38183594 C-50.92965227 47.12431412 -50.92965227 47.12431412 -50.57983398 44.93847656 C-49.76484404 42.2138365 -48.02571288 40.96469187 -46 39 C-44.86798881 37.30030567 -43.79205549 35.56233545 -42.765625 33.796875 C-42.19199219 32.8171875 -41.61835937 31.8375 -41.02734375 30.828125 C-40.44082031 29.81234375 -39.85429688 28.7965625 -39.25 27.75 C-38.64800781 26.71875 -38.04601562 25.6875 -37.42578125 24.625 C-35.94498227 22.08648747 -34.46996107 19.54479864 -33 17 C-35.39175599 17 -38.08498484 19.69615989 -40 21 C-39.82374165 18.62051228 -39.30280227 17.29774151 -37.59765625 15.62109375 C-36.09350908 14.37884514 -34.54870149 13.18623944 -33 12 C-33.66 10.68 -34.32 9.36 -35 8 C-42.68366859 9.08377242 -49.60794787 14.01798701 -54.625 19.8125 C-56.92638767 22.70628314 -56.92638767 22.70628314 -58 25 C-58.99 24.67 -59.98 24.34 -61 24 C-54.83232709 15.02428088 -47.27812067 6.79882542 -38 1 C-37.34 1 -36.68 1 -36 1 C-36 1.99 -36 2.98 -36 4 C-35.01 3.67 -34.02 3.34 -33 3 C-32.8453125 3.928125 -32.8453125 3.928125 -32.6875 4.875 C-32.12474627 7.36526484 -32.12474627 7.36526484 -29 9 C-27.906875 8.319375 -26.81375 7.63875 -25.6875 6.9375 C-23.82421875 5.77734375 -23.82421875 5.77734375 -22 5 C-21.01 5.33 -20.02 5.66 -19 6 C-22.465 8.475 -22.465 8.475 -26 11 C-22.89448334 14.10551666 -21.10801767 14.81323934 -17 16 C-16.7628125 15.44699219 -16.525625 14.89398438 -16.28125 14.32421875 C-14.69157155 11.44050326 -12.71483933 9.24666595 -10.5 6.8125 C-9.7059375 5.93207031 -8.911875 5.05164062 -8.09375 4.14453125 C-6 2 -6 2 -4 1 C-4.53313238 5.10321527 -6.70845383 7.13402673 -9.5 10.0625 C-12.95087907 13.60298747 -12.95087907 13.60298747 -15 18 C-10.05 18.33 -5.1 18.66 0 19 C0 12.73 0 6.46 0 0 Z " fill="#022B77" transform="translate(117,40)"/>
<path d="M0 0 C2.65665877 3.30584994 4.57658544 6.81297518 6.5546875 10.55859375 C7.62354439 12.51409707 8.69928097 14.46571623 9.77539062 16.41723633 C10.50365468 17.75524367 11.21906624 19.1003335 11.92089844 20.45239258 C15.74461344 27.78656518 18.61100403 33.15457044 26.6953125 36.22265625 C28.79658884 36.81611833 30.89814376 37.40859503 33 38 C38.80988435 40.58174556 38.80988435 40.58174556 39.9375 43.0625 C40 45 40 45 39 47 C38.01 47 37.02 47 36 47 C35.34 48.32 34.68 49.64 34 51 C29.3970402 49.27502493 25.06744176 47.0904129 20.6875 44.875 C19.94693359 44.50246094 19.20636719 44.12992188 18.44335938 43.74609375 C16.62798783 42.83255194 14.81386718 41.91652513 13 41 C16.75429624 43.94729798 20.78792616 46.18867579 24.953125 48.5 C25.62859375 48.995 26.3040625 49.49 27 50 C27 50.99 27 51.98 27 53 C21.51344743 56.11735941 21.51344743 56.11735941 18.8125 55.5 C18.214375 55.335 17.61625 55.17 17 55 C15.39588754 56.35405861 15.39588754 56.35405861 14 58 C10.98509443 59.00496852 8.95818308 59.10335303 5.8125 59.0625 C4.224375 59.041875 2.63625 59.02125 1 59 C1 52.73 1 46.46 1 40 C0.34 40 -0.32 40 -1 40 C-1 46.27 -1 52.54 -1 59 C-12.25 59.13392857 -12.25 59.13392857 -16 58 C-15.46823005 53.86186295 -13.22067834 51.72917682 -10.4375 48.75 C-9.61121094 47.85796875 -8.78492187 46.9659375 -7.93359375 46.046875 C-7.29550781 45.37140625 -6.65742187 44.6959375 -6 44 C-6.495 43.505 -6.495 43.505 -7 43 C-8.6485816 44.78920471 -10.29393121 46.5812005 -11.9375 48.375 C-12.40607422 48.88289063 -12.87464844 49.39078125 -13.35742188 49.9140625 C-15.97726768 52.74265854 -15.97726768 52.74265854 -18 56 C-25.75 54.375 -25.75 54.375 -28 51 C-25.69 49.35 -23.38 47.7 -21 46 C-21.721875 46.28875 -22.44375 46.5775 -23.1875 46.875 C-25.79166667 47.91666667 -28.39583333 48.95833333 -31 50 C-31.61875 49.195625 -32.2375 48.39125 -32.875 47.5625 C-34.74164041 44.96125481 -34.74164041 44.96125481 -37 44 C-37 42.68 -37 41.36 -37 40 C-34.94072044 39.01407845 -32.87743312 38.03652506 -30.8125 37.0625 C-29.66394531 36.51722656 -28.51539062 35.97195312 -27.33203125 35.41015625 C-24 34 -24 34 -21.19921875 33.62109375 C-20.47347656 33.41613281 -19.74773437 33.21117187 -19 33 C-18.29878675 31.34757082 -17.64021027 29.67700717 -17 28 C-15.81412134 25.86090309 -14.590197 23.74268602 -13.33984375 21.640625 C-12.9899086 21.0507782 -12.63997345 20.4609314 -12.2794342 19.85321045 C-11.5440101 18.61516943 -10.80687447 17.37814364 -10.06811523 16.14208984 C-8.93402797 14.24418954 -7.80546513 12.34308909 -6.67773438 10.44140625 C-1.15351217 1.15351217 -1.15351217 1.15351217 0 0 Z " fill="#02327D" transform="translate(118,0)"/>
<path d="M0 0 C6.96643619 8.47914805 7.68748673 19.43705149 8 30 C-0.50923086 33.62669288 -8.76970199 36.45622836 -17.9375 37.875 C-18.70489502 37.99464111 -19.47229004 38.11428223 -20.26293945 38.23754883 C-25.63363444 38.98973565 -30.4864612 39 -36 39 C-36 28.44 -36 17.88 -36 7 C-31.38 6.67 -26.76 6.34 -22 6 C-19.14707029 5.4471252 -16.30603138 4.81818934 -13.5 4.0625 C-12.8503125 3.89298828 -12.200625 3.72347656 -11.53125 3.54882812 C-7.63412814 2.51561941 -3.81150128 1.31167405 0 0 Z " fill="#1197E9" transform="translate(155,92)"/>
<path d="M0 0 C0.52464844 0.18175781 1.04929687 0.36351563 1.58984375 0.55078125 C7.16295119 2.35902742 12.74014304 3.60645371 18.5 4.625 C19.18698975 4.74786377 19.87397949 4.87072754 20.58178711 4.99731445 C26.06447838 5.93357255 31.43112034 6.44311203 37 7 C37 17.56 37 28.12 37 39 C30.56013005 39 25.09993359 38.80989379 18.875 37.8125 C18.06111816 37.68375488 17.24723633 37.55500977 16.40869141 37.42236328 C-2.85987201 34.14012799 -2.85987201 34.14012799 -7 30 C-7.42230781 24.0798702 -6.1971867 18.99621988 -4.625 13.3125 C-4.40328125 12.47138672 -4.1815625 11.63027344 -3.953125 10.76367188 C-2.92347573 6.94488443 -1.86205372 3.50606025 0 0 Z " fill="#0C8BD8" transform="translate(80,92)"/>
<path d="M0 0 C0.66 0 1.32 0 2 0 C2 9.57 2 19.14 2 29 C12.97499075 28.03161846 23.1741371 26.76021001 33.77734375 23.8046875 C37 23 37 23 41 23 C41.103125 22.01 41.20625 21.02 41.3125 20 C41.90808706 15.71702837 43.38595027 12.00003629 45 8 C45.66 8 46.32 8 47 8 C46.68817931 9.41681634 46.37551263 10.83344651 46.0625 12.25 C45.88847656 13.03890625 45.71445313 13.8278125 45.53515625 14.640625 C45.0527843 16.76728673 44.52889301 18.88442798 44 21 C47.96 19.02 51.92 17.04 56 15 C54.88477952 20.57610242 54.88477952 20.57610242 51.4375 23.125 C49.51108167 24.49757622 49.51108167 24.49757622 48 26 C48 26.99 48 27.98 48 29 C46.04714885 30.62479692 44.19696327 31.96255137 42.0625 33.3125 C41.44511963 33.70695312 40.82773926 34.10140625 40.19165039 34.5078125 C23.61329332 44.62495624 3.42741287 47.9683543 -15.58276367 43.87084961 C-23.25061045 41.95034193 -30.1432222 38.89589648 -37 35 C-36.814375 34.0925 -36.62875 33.185 -36.4375 32.25 C-36.03276424 29.24339146 -36.17475269 27.8119538 -37 25 C-36.30849854 25.15670166 -35.61699707 25.31340332 -34.90454102 25.47485352 C-31.791842 26.17672379 -28.67723511 26.86972411 -25.5625 27.5625 C-24.47388672 27.80935547 -23.38527344 28.05621094 -22.26367188 28.31054688 C-21.22919922 28.53935547 -20.19472656 28.76816406 -19.12890625 29.00390625 C-18.17056885 29.21861572 -17.21223145 29.4333252 -16.22485352 29.65454102 C-15.12355103 29.82554321 -15.12355103 29.82554321 -14 30 C-13.67 29.67 -13.34 29.34 -13 29 C-8.71 29 -4.42 29 0 29 C0 19.43 0 9.86 0 0 Z " fill="#071A6F" transform="translate(117,133)"/>
<path d="M0 0 C0.40836514 8.53029396 -0.58900357 15.82694328 -3 24 C-3.36822768 25.2848586 -3.73539864 26.57002047 -4.1015625 27.85546875 C-4.54628906 29.41201172 -4.54628906 29.41201172 -5 31 C-18.26578627 34.42879796 -30.08527368 37 -44 37 C-44 27.43 -44 17.86 -44 8 C-32.5 6.625 -32.5 6.625 -28.92382812 6.20556641 C-20.56573117 5.18267304 -12.91402144 3.42235811 -4.98046875 0.5859375 C-3 0 -3 0 0 0 Z " fill="#1195E4" transform="translate(163,125)"/>
<path d="M0 0 C3.93347763 0.71184203 7.67703403 1.77570415 11.5 2.9375 C22.33170196 6.0581156 32.74398454 7.06199871 44 8 C44 17.57 44 27.14 44 37 C35.60031049 37 29.01191776 36.61635203 21 35 C19.83082031 34.77054688 18.66164063 34.54109375 17.45703125 34.3046875 C7.26487463 32.15539809 7.26487463 32.15539809 5 29 C0.87572432 19.62793907 0.25839913 10.06464622 0 0 Z " fill="#0B88D2" transform="translate(73,125)"/>
<path d="M0 0 C2.125 1.0625 2.125 1.0625 4.125 5.0625 C0.66 8.0325 0.66 8.0325 -2.875 11.0625 C-2.38 11.5575 -2.38 11.5575 -1.875 12.0625 C1.59 9.5875 1.59 9.5875 5.125 7.0625 C3.54828611 11.45717064 1.29566852 15.34260363 -1.125 19.3125 C-1.72453491 20.30068726 -1.72453491 20.30068726 -2.33618164 21.30883789 C-9.80602134 33.559375 -9.80602134 33.559375 -11.875 36.0625 C-12.535 36.0625 -13.195 36.0625 -13.875 36.0625 C-13.91496094 36.83851562 -13.95492187 37.61453125 -13.99609375 38.4140625 C-15.27293145 43.71435768 -18.07003274 47.84299817 -20.9375 52.4375 C-21.50533203 53.36433594 -22.07316406 54.29117188 -22.65820312 55.24609375 C-24.05527616 57.523675 -25.4610041 59.79540065 -26.875 62.0625 C-29.75200723 60.69814605 -31.67593002 59.3662876 -33.875 57.0625 C-34.205 57.0625 -34.535 57.0625 -34.875 57.0625 C-35.205 59.3725 -35.535 61.6825 -35.875 64.0625 C-36.205 64.0625 -36.535 64.0625 -36.875 64.0625 C-37.63687789 46.77210454 -34.22476353 33.28440037 -25.875 18.0625 C-24.555 18.0625 -23.235 18.0625 -21.875 18.0625 C-21.63007812 17.32 -21.38515625 16.5775 -21.1328125 15.8125 C-18.04556735 9.06274662 -7.72561503 0.16794815 0 0 Z " fill="#1B307B" transform="translate(80.875,46.9375)"/>
<path d="M0 0 C1.79512381 2.43496993 3.34593708 4.78161527 4.875 7.375 C5.31046143 8.09655273 5.74592285 8.81810547 6.19458008 9.56152344 C7.47692475 11.69979455 8.73957723 13.84875594 10 16 C10.66644531 17.11117187 11.33289063 18.22234375 12.01953125 19.3671875 C15.96859744 26.19250565 15.96859744 26.19250565 16.08203125 29.109375 C14.30310955 32.2176714 11.25416178 32.97099412 8 34 C5.39943201 34.650142 2.87863735 35.21403481 0.25 35.6875 C-1.04421875 35.93886719 -2.3384375 36.19023438 -3.671875 36.44921875 C-8.74364581 37.09463363 -13.88732755 37 -19 37 C-19 25.12 -19 13.24 -19 1 C-4 -1 -4 -1 0 0 Z " fill="#129AEC" transform="translate(138,60)"/>
<path d="M0 0 C2.9296875 0.48828125 5.859375 0.9765625 8.7890625 1.46484375 C10.37847656 1.72974609 10.37847656 1.72974609 12 2 C14.97 2.495 14.97 2.495 18 3 C18 14.55 18 26.1 18 38 C5.39207461 37.70217499 -5.09616414 36.08346774 -17 32 C-16.39323468 27.49626305 -14.58719338 23.87640752 -12.4375 19.9375 C-12.086875 19.28644287 -11.73625 18.63538574 -11.375 17.96459961 C-7.95399481 11.71989552 -4.08422832 5.83306013 0 0 Z " fill="#0F93E2" transform="translate(99,59)"/>
<path d="M0 0 C0.66 0 1.32 0 2 0 C2 6.6 2 13.2 2 20 C2.99 20.33 3.98 20.66 5 21 C4.01 21 3.02 21 2 21 C2 32.88 2 44.76 2 57 C1.34 57 0.68 57 0 57 C0 45.45 0 33.9 0 22 C-3.63 21.67 -7.26 21.34 -11 21 C-13.35216839 20.40318115 -15.69782711 19.76739096 -18 19 C-18.23976562 19.68449219 -18.47953125 20.36898437 -18.7265625 21.07421875 C-20.25150804 24.5778513 -22.26141514 27.6472757 -24.375 30.8125 C-26.95384803 34.72380407 -29.39908427 38.55193171 -31.375 42.8125 C-33 46 -33 46 -36 47 C-36.33 47.66 -36.66 48.32 -37 49 C-41.05281712 47.77472971 -44.44360764 46.30119506 -48 44 C-46.62938601 40.33057139 -44.96645212 37.06140503 -42.9609375 33.69921875 C-42.38085938 32.72275391 -41.80078125 31.74628906 -41.203125 30.74023438 C-40.59984375 29.73283203 -39.9965625 28.72542969 -39.375 27.6875 C-38.76398438 26.66076172 -38.15296875 25.63402344 -37.5234375 24.57617188 C-36.01880606 22.04886125 -34.5109006 19.52356601 -33 17 C-35.39175599 17 -38.08498484 19.69615989 -40 21 C-39.82374165 18.62051228 -39.30280227 17.29774151 -37.59765625 15.62109375 C-36.09350908 14.37884514 -34.54870149 13.18623944 -33 12 C-33.66 10.68 -34.32 9.36 -35 8 C-42.68366859 9.08377242 -49.60794787 14.01798701 -54.625 19.8125 C-56.92638767 22.70628314 -56.92638767 22.70628314 -58 25 C-58.99 24.67 -59.98 24.34 -61 24 C-54.83232709 15.02428088 -47.27812067 6.79882542 -38 1 C-37.34 1 -36.68 1 -36 1 C-36 1.99 -36 2.98 -36 4 C-35.01 3.67 -34.02 3.34 -33 3 C-32.896875 3.61875 -32.79375 4.2375 -32.6875 4.875 C-32.12474627 7.36526484 -32.12474627 7.36526484 -29 9 C-27.906875 8.319375 -26.81375 7.63875 -25.6875 6.9375 C-23.82421875 5.77734375 -23.82421875 5.77734375 -22 5 C-21.01 5.33 -20.02 5.66 -19 6 C-22.465 8.475 -22.465 8.475 -26 11 C-22.89448334 14.10551666 -21.10801767 14.81323934 -17 16 C-16.7628125 15.44699219 -16.525625 14.89398438 -16.28125 14.32421875 C-14.69157155 11.44050326 -12.71483933 9.24666595 -10.5 6.8125 C-9.7059375 5.93207031 -8.911875 5.05164062 -8.09375 4.14453125 C-6 2 -6 2 -4 1 C-4.53313238 5.10321527 -6.70845383 7.13402673 -9.5 10.0625 C-12.95087907 13.60298747 -12.95087907 13.60298747 -15 18 C-10.05 18.33 -5.1 18.66 0 19 C0 12.73 0 6.46 0 0 Z " fill="#012E79" transform="translate(117,40)"/>
<path d="M0 0 C0.47308594 0.36351563 0.94617187 0.72703125 1.43359375 1.1015625 C10.32301095 8.05920466 10.32301095 8.05920466 20.234375 13.2890625 C23 15 23 15 23.6640625 17.79296875 C23.64472656 19.47326172 23.64472656 19.47326172 23.625 21.1875 C23.79383513 26.96407348 24.48901721 32.20072798 25.875 37.8125 C26.11790771 38.86183716 26.11790771 38.86183716 26.36572266 39.93237305 C26.88793394 42.11121483 26.88793394 42.11121483 28 45 C29.485 45.495 29.485 45.495 31 46 C31 46.66 31 47.32 31 48 C33.81119304 48.6520027 36.62375031 49.29670121 39.4375 49.9375 C40.22060547 50.11990234 41.00371094 50.30230469 41.81054688 50.49023438 C47.20058734 51.71020238 52.49766112 52.47675456 58 53 C58 53.33 58 53.66 58 54 C59.65 54.33 61.3 54.66 63 55 C63 55.33 63 55.66 63 56 C56.92396601 56.21501947 51.64659853 55.48259748 45.75 54.0625 C44.56664063 53.78889648 44.56664063 53.78889648 43.359375 53.50976562 C39.89782876 52.70577473 36.44643302 51.8664244 33 51 C33.185625 51.5775 33.37125 52.155 33.5625 52.75 C34.04023546 55.20692525 33.75729364 56.64397534 33 59 C29.644238 58.38024215 27.47736472 57.15537152 24.75 55.125 C24.04359375 54.61195313 23.3371875 54.09890625 22.609375 53.5703125 C22.07828125 53.05210937 21.5471875 52.53390625 21 52 C21 51.01 21 50.02 21 49 C19.06102121 46.32601524 19.06102121 46.32601524 17 44 C18.98 44.33 20.96 44.66 23 45 C22.34773438 44.6596875 21.69546875 44.319375 21.0234375 43.96875 C10.58647663 38.18070091 6.39431368 30.87670549 2 20 C1.67773438 19.22398438 1.35546875 18.44796875 1.0234375 17.6484375 C-1.06397331 12.12752854 -1.60714739 6.88465934 -1 1 C-0.67 0.67 -0.34 0.34 0 0 Z " fill="#077FC6" transform="translate(48,108)"/>
<path d="M0 0 C0.66 0 1.32 0 2 0 C13.23701238 19.00416346 13.23701238 19.00416346 12.8046875 24.46875 C10.50080577 31.71591194 1.27342238 36.31642126 -4.93359375 39.96875 C-7 41 -7 41 -9 41 C-9.09796875 40.21238281 -9.1959375 39.42476562 -9.296875 38.61328125 C-10.28619482 31.40659808 -11.83333206 24.68994099 -14.09765625 17.77734375 C-14.82899528 15.52633921 -15.46419021 13.30342972 -16 11 C-15.18015625 10.54109375 -14.3603125 10.0821875 -13.515625 9.609375 C-12.43796875 8.99578125 -11.3603125 8.3821875 -10.25 7.75 C-9.18265625 7.14671875 -8.1153125 6.5434375 -7.015625 5.921875 C-4.25243227 4.16087653 -2.27850269 2.31955679 0 0 Z " fill="#16A2F7" transform="translate(174,80)"/>
<path d="M0 0 C1.08926959 13.4040675 -4.09936121 27.24487473 -12.1875 37.875 C-22.94117647 46 -22.94117647 46 -28 46 C-27.3288726 40.96654452 -26.43356231 36.01626692 -25.42578125 31.0390625 C-24.90637118 27.95773957 -24.90637118 27.95773957 -25.10546875 24.6484375 C-25.1913821 21.08917017 -25.12861601 18.38584804 -24 15 C-20.9753976 12.59376076 -17.98526003 11.18104619 -14.44921875 9.6328125 C-10.10471156 7.57618282 -7.11512858 4.83612757 -3.70703125 1.50390625 C-2 0 -2 0 0 0 Z " fill="#149EF2" transform="translate(189,108)"/>
<path d="M0 0 C15.85063642 7.92531821 25.95235673 22.75141166 32 39 C35.68045259 51.00257563 35.68045259 51.00257563 34 56 C33.7215625 57.11375 33.7215625 57.11375 33.4375 58.25 C33.293125 58.8275 33.14875 59.405 33 60 C32.34 60 31.68 60 31 60 C30.70867187 59.17757812 30.41734375 58.35515625 30.1171875 57.5078125 C27.67555633 50.8585905 24.99935824 44.87054882 21.13671875 38.92578125 C20 37 20 37 20 35 C18.36591673 33.30137484 16.69221379 31.64072181 15 30 C13.26497096 28.06774799 11.5360519 26.12999645 9.8125 24.1875 C4.99469659 18.83346421 -0.19368265 14.28231649 -6 10 C-4.21091442 6.92798471 -2.50324921 4.50324921 0 2 C0 1.34 0 0.68 0 0 Z " fill="#1A2D7A" transform="translate(157,42)"/>
<path d="M0 0 C2.42073532 1.8896254 4.64898366 3.94901482 6.875 6.0625 C7.49197754 6.64088623 8.10895508 7.21927246 8.74462891 7.81518555 C13.32920882 12.1860928 17.40501574 16.76970336 21 22 C16.71444902 28.42832647 10.92243953 30.8865583 4 34 C3.3709375 32.83984375 2.741875 31.6796875 2.09375 30.484375 C-2.89298433 21.35800557 -8.01892667 12.52052346 -14 4 C-12.75967847 1.51935695 -11.67404028 1.04403654 -9.25 -0.25 C-8.57453125 -0.62640625 -7.8990625 -1.0028125 -7.203125 -1.390625 C-4.03343788 -2.26734697 -2.86895484 -1.60274457 0 0 Z " fill="#16A2F8" transform="translate(153,55)"/>
<path d="M0 0 C3.85611788 4.92692986 6.9218779 10.36198858 10.1171875 15.72753906 C11.25308053 17.6301599 12.39989327 19.525924 13.546875 21.421875 C14.26630993 22.62719561 14.98508367 23.83291117 15.703125 25.0390625 C16.68780762 26.68189209 16.68780762 26.68189209 17.69238281 28.35791016 C18.12389648 29.2297998 18.55541016 30.10168945 19 31 C18.67 31.66 18.34 32.32 18 33 C16.8553125 32.67515625 15.710625 32.3503125 14.53125 32.015625 C10.13360587 30.92008513 6.01511561 30.70065447 1.5 30.75 C0.79230469 30.74226563 0.08460937 30.73453125 -0.64453125 30.7265625 C-5.73755198 30.74518415 -10.0832767 31.69851442 -15 33 C-16.32 33 -17.64 33 -19 33 C-17.50849947 28.93390232 -15.55223603 25.36004075 -13.33984375 21.640625 C-12.9899086 21.0507782 -12.63997345 20.4609314 -12.2794342 19.85321045 C-11.5440101 18.61516943 -10.80687447 17.37814364 -10.06811523 16.14208984 C-8.93402797 14.24418954 -7.80546513 12.34308909 -6.67773438 10.44140625 C-1.15351217 1.15351217 -1.15351217 1.15351217 0 0 Z " fill="#17A2F6" transform="translate(118,0)"/>
<path d="M0 0 C0.66 0 1.32 0 2 0 C2.27972656 0.79921875 2.55945313 1.5984375 2.84765625 2.421875 C6.85775836 13.4077496 12.20956616 22.49339262 19 32 C6.79 32 -5.42 32 -18 32 C-16.51241254 28.28103135 -15.08848985 25.26569861 -13.06640625 21.875 C-12.49986328 20.92109375 -11.93332031 19.9671875 -11.34960938 18.984375 C-10.75986328 17.99953125 -10.17011719 17.0146875 -9.5625 16 C-8.68368164 14.52273437 -8.68368164 14.52273437 -7.78710938 13.015625 C-6.19524086 10.34143045 -4.59922802 7.6697985 -3 5 C-2.48300537 4.06929688 -1.96601074 3.13859375 -1.43334961 2.1796875 C-0.96034424 1.46039063 -0.48733887 0.74109375 0 0 Z " fill="#0A7BBE" transform="translate(45,123)"/>
<path d="M0 0 C2.25013778 2.89441158 4.17648997 5.86622067 6.03125 9.02734375 C6.59457031 9.98447266 7.15789062 10.94160156 7.73828125 11.92773438 C8.31964844 12.92095703 8.90101563 13.91417969 9.5 14.9375 C10.65615038 16.90500646 11.81239717 18.87245627 12.96875 20.83984375 C13.47857422 21.70988037 13.98839844 22.57991699 14.51367188 23.47631836 C15.54743585 25.23157759 16.60820015 26.97109877 17.68945312 28.69750977 C19 31 19 31 19 33 C6.79 33 -5.42 33 -18 33 C-16.02 30.36 -14.04 27.72 -12 25 C-6.79709383 17.09618882 -3.1208378 8.91667943 0 0 Z " fill="#19A5F9" transform="translate(190,122)"/>
<path d="M0 0 C3.63 1.98 7.26 3.96 11 6 C10.5875 7.2375 10.175 8.475 9.75 9.75 C7.15222711 18.32637939 5.67538733 27.20709631 4 36 C2.11998091 35.11474829 0.24620526 34.21623295 -1.625 33.3125 C-2.66914062 32.81363281 -3.71328125 32.31476563 -4.7890625 31.80078125 C-8.29683932 29.83352442 -10.99065119 27.65238401 -14 25 C-13.49210937 24.11699219 -12.98421875 23.23398438 -12.4609375 22.32421875 C-8.21667468 14.92985248 -4.05453209 7.50088436 0 0 Z " fill="#0B85CE" transform="translate(67,85)"/>
<path d="M0 0 C4.19360449 0.67097672 7.40334352 2.8558394 11 5 C9.49928833 9.27064225 7.25729684 12.83092697 4.75 16.5625 C0.62356309 22.82186151 -2.82407589 29.19978602 -6 36 C-10.03791199 34.71368455 -13.43360176 33.30766945 -17 31 C-15.64574082 27.37930528 -14.01734129 24.15378068 -12.03125 20.83984375 C-11.46019531 19.88142578 -10.88914062 18.92300781 -10.30078125 17.93554688 C-9.70652344 16.94619141 -9.11226563 15.95683594 -8.5 14.9375 C-7.32172054 12.96816308 -6.14459073 10.99813774 -4.96875 9.02734375 C-4.44732422 8.15843506 -3.92589844 7.28952637 -3.38867188 6.39428711 C-2.17122685 4.29522182 -1.05520119 2.18410199 0 0 Z " fill="#0F8EDA" transform="translate(86,53)"/>
<path d="M0 0 C0.62342285 0.14622803 1.2468457 0.29245605 1.88916016 0.44311523 C13.63955803 3.17231673 24.91255208 5.59255794 37 6 C37 9.96 37 13.92 37 18 C31.33785571 18.17694201 26.46736467 17.69558581 21 16.25 C20.30156982 16.06663086 19.60313965 15.88326172 18.88354492 15.69433594 C10.36697017 13.37497913 5.29878296 11.62616766 0.8125 3.8046875 C0 2 0 2 0 0 Z " fill="#F0F2F6" transform="translate(80,158)"/>
<path d="M0 0 C1 2 1 2 0.5390625 3.8046875 C-1.21064051 7.76769004 -2.77312803 10.34536783 -6.75 12.25 C-11.09665029 13.86467606 -15.58132606 15.0679008 -20.0625 16.25 C-20.72282227 16.42563477 -21.38314453 16.60126953 -22.06347656 16.78222656 C-26.80878026 17.94563683 -31.11607596 18.15245248 -36 18 C-36 14.04 -36 10.08 -36 6 C-33.35871094 5.72736328 -33.35871094 5.72736328 -30.6640625 5.44921875 C-28.3176549 5.19580673 -25.97130364 4.94187272 -23.625 4.6875 C-22.46871094 4.56955078 -21.31242188 4.45160156 -20.12109375 4.33007812 C-13.1219062 3.55898119 -6.65329373 2.32456461 0 0 Z " fill="#F1F2F6" transform="translate(155,158)"/>
<path d="M0 0 C2.86370238 1.16096043 3.10540591 2.19811295 4.3125 4.9375 C3.41789062 5.66453125 2.52328125 6.3915625 1.6015625 7.140625 C-6.45503205 13.80121966 -13.30560847 20.64398198 -19.6875 28.9375 C-21.74916612 27.07534996 -23.4151947 25.51198377 -24.61328125 22.984375 C-24.78431188 18.26753025 -20.59816692 14.32565853 -17.6875 10.9375 C-5.6875 -0.13226744 -5.6875 -0.13226744 0 0 Z " fill="#F4F5F8" transform="translate(80.6875,47.0625)"/>
<path d="M0 0 C9.59964487 1.00084403 16.70593144 8.06118386 22.66015625 15.23828125 C26.01778836 19.65312697 26.01778836 19.65312697 25.875 22.4375 C24.83556938 25.48154683 23.30912348 26.81606996 21 29 C20.14728516 27.93072266 20.14728516 27.93072266 19.27734375 26.83984375 C12.48397025 18.41333872 5.83774924 11.26676764 -3 5 C-2.01 3.35 -1.02 1.7 0 0 Z " fill="#F5F6F9" transform="translate(154,47)"/>
<path d="M0 0 C4.875 3.75 4.875 3.75 6 6 C6.99 6.66 7.98 7.32 9 8 C9.72060349 9.64406595 10.3744702 11.31746183 11 13 C11.63324995 14.29011842 12.28318638 15.57211713 12.9453125 16.84765625 C13.29980469 17.53537109 13.65429688 18.22308594 14.01953125 18.93164062 C14.75976773 20.35849222 15.50460686 21.78296493 16.25390625 23.20507812 C16.60582031 23.89150391 16.95773438 24.57792969 17.3203125 25.28515625 C17.64273926 25.90269775 17.96516602 26.52023926 18.29736328 27.15649414 C19 29 19 29 19 33 C19.66 33 20.32 33 21 33 C21 31.02 21 29.04 21 27 C23 29 23 29 23.265625 32.0546875 C23.17568773 54.04434896 17.25130407 71.76951546 1.5 87.6875 C0.34099144 88.79970245 -0.82266902 89.90721141 -2 91 C-2.99 90.67 -3.98 90.34 -5 90 C-4.0479279 88.99403703 -3.08812654 87.99538437 -2.125 87 C-1.59132812 86.443125 -1.05765625 85.88625 -0.5078125 85.3125 C1 84 1 84 3 84 C3.0825 83.21625 3.165 82.4325 3.25 81.625 C3.4975 80.75875 3.745 79.8925 4 79 C5.32467746 78.3162955 6.65863633 77.65035814 8 77 C8.70569875 75.34948144 9.36507783 73.6790164 10 72 C10.96747815 70.11894221 11.94744113 68.24427146 12.9375 66.375 C17.39599817 57.50150121 19.37879418 48.87503042 20 39 C18.68 39.66 17.36 40.32 16 41 C16 38 16 38 16.66796875 35.74609375 C17.13296865 31.90027102 15.88675946 29.57313672 14.3125 26.0625 C13.79300781 24.87785156 13.27351563 23.69320312 12.73828125 22.47265625 C11.06779829 18.95159804 11.06779829 18.95159804 8.80859375 15.73828125 C6.86445173 12.79477465 6.59489409 11.44340022 7 8 C6.401875 7.9175 5.80375 7.835 5.1875 7.75 C2.34974589 6.77705573 1.50323933 5.55550687 0 3 C0 2.01 0 1.02 0 0 Z " fill="#0E2374" transform="translate(169,69)"/>
<path d="M0 0 C0.66 0 1.32 0 2 0 C1.68817931 1.41681634 1.37551263 2.83344651 1.0625 4.25 C0.88847656 5.03890625 0.71445313 5.8278125 0.53515625 6.640625 C0.0527843 8.76728673 -0.47110699 10.88442798 -1 13 C2.96 11.02 6.92 9.04 11 7 C9.88477952 12.57610242 9.88477952 12.57610242 6.4375 15.125 C4.51108167 16.49757622 4.51108167 16.49757622 3 18 C3 18.99 3 19.98 3 21 C1.04713039 22.62481227 -0.8028826 23.96273992 -2.9375 25.3125 C-3.55488037 25.70622803 -4.17226074 26.09995605 -4.80834961 26.50561523 C-12.7289086 31.33234425 -23.5416162 36.71905842 -33 36 C-31.515 35.505 -31.515 35.505 -30 35 C-30 34.34 -30 33.68 -30 33 C-28.53626953 32.60167969 -28.53626953 32.60167969 -27.04296875 32.1953125 C-25.75773414 31.83882407 -24.47258216 31.48203761 -23.1875 31.125 C-21.92292969 30.77695313 -20.65835938 30.42890625 -19.35546875 30.0703125 C-15.91591287 29.14299705 -15.91591287 29.14299705 -13 27 C-12.01 27 -11.02 27 -10 27 C-9.71125 26.113125 -9.4225 25.22625 -9.125 24.3125 C-6.36363636 16.18181818 -6.36363636 16.18181818 -4 15 C-3.855625 13.989375 -3.71125 12.97875 -3.5625 11.9375 C-2.93424205 7.53969436 -1.65686292 4.10613853 0 0 Z " fill="#0F2E7A" transform="translate(162,141)"/>
<path d="M0 0 C11.07122223 18.72377727 11.07122223 18.72377727 10.9375 24.875 C9.75783025 27.54891809 8.59639965 27.84024 6 29 C3.76553808 25.43234179 1.56719285 21.84375877 -0.625 18.25 C-1.26179687 17.23421875 -1.89859375 16.2184375 -2.5546875 15.171875 C-3.14765625 14.1921875 -3.740625 13.2125 -4.3515625 12.203125 C-4.90666504 11.30239258 -5.46176758 10.40166016 -6.03369141 9.47363281 C-7 7 -7 7 -6.25927734 4.78417969 C-2.88259442 0 -2.88259442 0 0 0 Z " fill="#F3F6FA" transform="translate(176,80)"/>
<path d="M0 0 C2.49361571 1.20381448 4.68143083 2.45428722 7 4 C6.42179989 7.84967428 5.30647375 10.55259546 3.27734375 13.86328125 C2.73916016 14.74951172 2.20097656 15.63574219 1.64648438 16.54882812 C1.08251953 17.46083984 0.51855469 18.37285156 -0.0625 19.3125 C-0.63033203 20.24384766 -1.19816406 21.17519531 -1.78320312 22.13476562 C-3.18224093 24.42730656 -4.58798481 26.71543753 -6 29 C-9.89013672 27.22216797 -9.89013672 27.22216797 -10.87890625 25.22265625 C-11.3330115 16.88762761 -4.01520351 7.00935871 0 0 Z " fill="#F3F6F9" transform="translate(60,80)"/>
<path d="M0 0 C0 0.99 0 1.98 0 3 C0.99 2.67 1.98 2.34 3 2 C3.103125 2.61875 3.20625 3.2375 3.3125 3.875 C3.87525373 6.36526484 3.87525373 6.36526484 7 8 C8.6396875 6.9790625 8.6396875 6.9790625 10.3125 5.9375 C12.17578125 4.77734375 12.17578125 4.77734375 14 4 C14.99 4.33 15.98 4.66 17 5 C13.535 7.475 13.535 7.475 10 10 C12.50816459 12.50816459 13.90837736 13.61410019 17 15 C15.3125 15.6875 15.3125 15.6875 13 16 C10.5 14.5 10.5 14.5 8 13 C4.5552809 13.39144535 2.43688236 14.95777549 -0.25 17.0625 C-1.30960938 17.88427734 -1.30960938 17.88427734 -2.390625 18.72265625 C-3.18726563 19.35494141 -3.18726563 19.35494141 -4 20 C-3.19095897 15.20719998 -0.74015409 13.86479887 3 11 C2.34 9.68 1.68 8.36 1 7 C-6.68366859 8.08377242 -13.60794787 13.01798701 -18.625 18.8125 C-20.92638767 21.70628314 -20.92638767 21.70628314 -22 24 C-22.99 23.67 -23.98 23.34 -25 23 C-9.19553073 0 -9.19553073 0 0 0 Z " fill="#112D79" transform="translate(81,41)"/>
<path d="M0 0 C12.54 0 25.08 0 38 0 C38 2.31 38 4.62 38 7 C25.81280029 7.43182991 13.69051949 5.48970731 2 2 C1.34 1.34 0.68 0.68 0 0 Z " fill="#EDEEF4" transform="translate(79,155)"/>
<path d="M0 0 C12.54 0 25.08 0 38 0 C34.54822587 2.30118275 31.21961988 3.10993611 27.25 4.0625 C26.21359375 4.32256836 26.21359375 4.32256836 25.15625 4.58789062 C18.62652122 6.189638 12.30730532 7.13828433 5.5625 7.0625 C4.51191406 7.05347656 3.46132812 7.04445312 2.37890625 7.03515625 C1.59386719 7.02355469 0.80882813 7.01195312 0 7 C0 4.69 0 2.38 0 0 Z " fill="#ECEEF3" transform="translate(119,155)"/>
<path d="M0 0 C3.88559892 1.62286351 6.75898137 4.23968096 9.8125 7.0625 C10.34004883 7.5469458 10.86759766 8.0313916 11.41113281 8.53051758 C15.79645339 12.64091539 19.54623091 17.0747307 23 22 C21.35 23.98 19.7 25.96 18 28 C14.10558478 26.70186159 13.70181465 25.27272321 11.6796875 21.7578125 C11.06222656 20.69175781 10.44476563 19.62570313 9.80859375 18.52734375 C8.85146484 16.84318359 8.85146484 16.84318359 7.875 15.125 C7.22917969 14.00996094 6.58335937 12.89492187 5.91796875 11.74609375 C1.15762562 3.47287687 1.15762562 3.47287687 0 0 Z " fill="#F0F5F9" transform="translate(151,55)"/>
<path d="M0 0 C9.41002278 0.96355353 9.41002278 0.96355353 14 2 C14 2.66 14 3.32 14 4 C16.81119304 4.6520027 19.62375031 5.29670121 22.4375 5.9375 C23.22060547 6.11990234 24.00371094 6.30230469 24.81054688 6.49023438 C30.20058734 7.71020238 35.49766112 8.47675456 41 9 C41 9.33 41 9.66 41 10 C43.475 10.495 43.475 10.495 46 11 C46 11.33 46 11.66 46 12 C39.92396601 12.21501947 34.64659853 11.48259748 28.75 10.0625 C27.96109375 9.88009766 27.1721875 9.69769531 26.359375 9.50976562 C22.89782876 8.70577473 19.44643302 7.8664244 16 7 C16.185625 7.5775 16.37125 8.155 16.5625 8.75 C17.04023546 11.20692525 16.75729364 12.64397534 16 15 C12.644238 14.38024215 10.47736472 13.15537152 7.75 11.125 C7.04359375 10.61195313 6.3371875 10.09890625 5.609375 9.5703125 C5.07828125 9.05210937 4.5471875 8.53390625 4 8 C4 7.01 4 6.02 4 5 C2.06102121 2.32601524 2.06102121 2.32601524 0 0 Z " fill="#21347E" transform="translate(65,152)"/>
<path d="M0 0 C0 3.82113313 -1.24826116 5.45817476 -3.2109375 8.7265625 C-3.87867187 9.8403125 -4.54640625 10.9540625 -5.234375 12.1015625 C-5.58564453 12.67938477 -5.93691406 13.25720703 -6.29882812 13.85253906 C-7.37222649 15.62043202 -8.43286596 17.39551966 -9.4921875 19.171875 C-14.73902097 27.86951049 -14.73902097 27.86951049 -17 29 C-18.65 27.68 -20.3 26.36 -22 25 C-20.57954375 16.29720467 -11.53453686 9.25270874 -5 4 C-4.01 3.195625 -3.02 2.39125 -2 1.5625 C-1.34 1.046875 -0.68 0.53125 0 0 Z " fill="#F3F7FA" transform="translate(85,54)"/>
<path d="M0 0 C0 0.66 0 1.32 0 2 C-0.6290625 2.10957031 -1.258125 2.21914063 -1.90625 2.33203125 C-7.56623682 3.38049266 -12.6694886 4.82831017 -18 7 C-16.72125 6.690625 -15.4425 6.38125 -14.125 6.0625 C-9.11241278 4.93885167 -4.11489044 4.40577419 1 4 C-2.52468376 6.82152715 -6.32679708 8.98269186 -10.25 11.1875 C-10.8996875 11.55552734 -11.549375 11.92355469 -12.21875 12.30273438 C-13.81110627 13.20428903 -15.4053638 14.10248417 -17 15 C-17.78375 14.195625 -18.5675 13.39125 -19.375 12.5625 C-21.71982856 10.01309583 -21.71982856 10.01309583 -24 9 C-24 7.68 -24 6.36 -24 5 C-21.8967433 4.01888025 -19.79236311 3.04016866 -17.6875 2.0625 C-16.51574219 1.51722656 -15.34398438 0.97195312 -14.13671875 0.41015625 C-8.26496866 -2.229572 -6.04133405 -1.68365047 0 0 Z " fill="#476DA9" transform="translate(105,35)"/>
<path d="M0 0 C3.38128588 1.69064294 4.54743677 2.30238293 6.796875 4.96875 C7.28027344 5.53980469 7.76367188 6.11085938 8.26171875 6.69921875 C8.75285156 7.29347656 9.24398437 7.88773438 9.75 8.5 C10.25660156 9.09425781 10.76320312 9.68851563 11.28515625 10.30078125 C15 14.73656503 15 14.73656503 15 17 C10.07365343 19.62738484 5.44399329 19.14517315 0 19 C0 12.73 0 6.46 0 0 Z " fill="#1298EB" transform="translate(119,40)"/>
<path d="M0 0 C0.33 0 0.66 0 1 0 C1 6.27 1 12.54 1 19 C-10.25 19.13392857 -10.25 19.13392857 -14 18 C-13.41578682 14.83279135 -12.52212347 13.12820781 -10.3125 10.80078125 C-9.77882813 10.23166016 -9.24515625 9.66253906 -8.6953125 9.07617188 C-8.13585937 8.49416016 -7.57640625 7.91214844 -7 7.3125 C-6.44054687 6.71888672 -5.88109375 6.12527344 -5.3046875 5.51367188 C-1.77327806 1.77327806 -1.77327806 1.77327806 0 0 Z " fill="#1197E9" transform="translate(116,40)"/>
<path d="M0 0 C6.50245522 5.7799602 7.99232177 15.7447899 9 24 C9.125 27.6875 9.125 27.6875 9 30 C8.34 30 7.68 30 7 30 C6.56300781 28.76636719 6.56300781 28.76636719 6.1171875 27.5078125 C3.66403163 20.82720564 1.0291462 14.96212939 -3.05859375 9.12109375 C-4 7 -4 7 -3.28515625 4.91015625 C-2.86105469 4.27980469 -2.43695313 3.64945312 -2 3 C-1.34 2.01 -0.68 1.02 0 0 Z " fill="#ECEEF3" transform="translate(181,72)"/>
<path d="M0 0 C-1.56525964 3.67793249 -3.85396108 6.21212508 -6.5625 9.125 C-9.63719186 12.31507509 -9.63719186 12.31507509 -12 16 C-19.75 14.375 -19.75 14.375 -22 11 C-6.69072165 0 -6.69072165 0 0 0 Z " fill="#0F8FE0" transform="translate(112,40)"/>
<path d="M0 0 C1.65 1.65 3.3 3.3 5 5 C3.47980498 10.03564599 1.36386407 14.57366021 -1 19.25 C-1.35578125 19.96929687 -1.7115625 20.68859375 -2.078125 21.4296875 C-4.74647556 26.74647556 -4.74647556 26.74647556 -7 29 C-7.71330547 22.40588722 -6.60460413 16.80570388 -4.625 10.5625 C-4.40368408 9.86447266 -4.18236816 9.16644531 -3.9543457 8.44726562 C-2.9092567 5.29627433 -1.85234925 2.77852388 0 0 Z " fill="#F1F2F6" transform="translate(54,72)"/>
<path d="M0 0 C7.57768292 2.14701016 14.64709837 5.27025936 21 10 C21 10.99 21 11.98 21 13 C18.25 14.625 18.25 14.625 15 16 C10.59457432 14.79597476 8.02624966 10.82219283 5.25 7.4375 C4.74339844 6.83486328 4.23679688 6.23222656 3.71484375 5.61132812 C0 1.15051171 0 1.15051171 0 0 Z " fill="#149DF2" transform="translate(124,40)"/>
<path d="M0 0 C0.66 0 1.32 0 2 0 C2 6.6 2 13.2 2 20 C2.99 20.33 3.98 20.66 5 21 C4.01 21 3.02 21 2 21 C2 32.88 2 44.76 2 57 C1.34 57 0.68 57 0 57 C-1.40027356 16.95408138 -1.40027356 16.95408138 0 0 Z " fill="#00206C" transform="translate(117,40)"/>
<path d="M0 0 C1.33804688 0.54140625 1.33804688 0.54140625 2.703125 1.09375 C4.45882812 1.78984375 4.45882812 1.78984375 6.25 2.5 C7.41015625 2.9640625 8.5703125 3.428125 9.765625 3.90625 C13.06248366 5.21356233 13.06248366 5.21356233 17 5 C18.125 8.75 18.125 8.75 17 11 C16.01 11 15.02 11 14 11 C13.34 12.32 12.68 13.64 12 15 C8.36484074 13.99023354 7.04330611 13.05356282 4.625 10.0625 C3.820625 8.5465625 3.820625 8.5465625 3 7 C3.33 6.01 3.66 5.02 4 4 C2.68 3.34 1.36 2.68 0 2 C0 1.34 0 0.68 0 0 Z " fill="#516299" transform="translate(140,36)"/>
<path d="M0 0 C0.66 0.66 1.32 1.32 2 2 C0.55381018 16.88260801 -10.54042012 30.29150697 -21 40 C-21.99 39.67 -22.98 39.34 -24 39 C-23.0479279 37.99403703 -22.08812654 36.99538437 -21.125 36 C-20.59132812 35.443125 -20.05765625 34.88625 -19.5078125 34.3125 C-18 33 -18 33 -16 33 C-15.9175 32.21625 -15.835 31.4325 -15.75 30.625 C-15.37875 29.325625 -15.37875 29.325625 -15 28 C-13.67532254 27.3162955 -12.34136367 26.65035814 -11 26 C-10.29218729 24.3503869 -9.63336971 22.67960264 -9 21 C-8.03531481 19.07600391 -7.05522908 17.15967731 -6.0625 15.25 C-3.52955409 10.24603839 -1.60997754 5.36659179 0 0 Z " fill="#072B78" transform="translate(188,120)"/>
<path d="M0 0 C0.845625 0.886875 1.69125 1.77375 2.5625 2.6875 C9.25935689 8.47863444 19.41161803 10.76930736 28 12 C28 12.66 28 13.32 28 14 C34.6 14 41.2 14 48 14 C48 14.33 48 14.66 48 15 C29.8072842 15.68992213 15.17142618 14.18831033 -1 5 C-0.67 3.35 -0.34 1.7 0 0 Z " fill="#2C3C84" transform="translate(81,163)"/>
<path d="M0 0 C-3.52468376 2.82152715 -7.32679708 4.98269186 -11.25 7.1875 C-11.8996875 7.55552734 -12.549375 7.92355469 -13.21875 8.30273438 C-14.81110627 9.20428903 -16.4053638 10.10248417 -18 11 C-19.65 9.35 -21.3 7.7 -23 6 C-20.93950145 5.18243762 -18.87651147 4.37115266 -16.8125 3.5625 C-15.66394531 3.11003906 -14.51539062 2.65757813 -13.33203125 2.19140625 C-8.76055165 0.55682093 -4.84405909 -0.13840169 0 0 Z " fill="#188EDB" transform="translate(106,39)"/>
<path d="M0 0 C0.66 0 1.32 0 2 0 C2 3.96 2 7.92 2 12 C2.66 10.35 3.32 8.7 4 7 C4.99 7.33 5.98 7.66 7 8 C5.68 10.97 4.36 13.94 3 17 C2.01 17 1.02 17 0 17 C-0.33 19.31 -0.66 21.62 -1 24 C-1.33 24 -1.66 24 -2 24 C-2.0544207 21.31222198 -2.09387266 18.62556788 -2.125 15.9375 C-2.14175781 15.18533203 -2.15851562 14.43316406 -2.17578125 13.65820312 C-2.21865121 8.70672291 -1.58399375 4.69585549 0 0 Z " fill="#2D3E83" transform="translate(46,87)"/>
<path d="M0 0 C0.33 0.99 0.66 1.98 1 3 C-2.96 4.65 -6.92 6.3 -11 8 C-11.66 7.34 -12.32 6.68 -13 6 C-10.36 4.68 -7.72 3.36 -5 2 C-6.17755859 2.19916016 -6.17755859 2.19916016 -7.37890625 2.40234375 C-12.91187987 3.33242643 -18.44073841 4.24191887 -24 5 C-17.00290034 -1.38865621 -8.86845644 -1.37585399 0 0 Z " fill="#043E89" transform="translate(109,38)"/>
<path d="M0 0 C0.99 0.33 1.98 0.66 3 1 C2 3 2 3 -0.01171875 3.81640625 C-7.65377323 5.94725648 -15.08625787 6.66496566 -23 7 C-23 6.34 -23 5.68 -23 5 C-22.06148193 4.82609741 -22.06148193 4.82609741 -21.10400391 4.64868164 C-18.27708033 4.12306613 -15.45104062 3.59284139 -12.625 3.0625 C-11.64015625 2.88009766 -10.6553125 2.69769531 -9.640625 2.50976562 C-8.22910156 2.24389648 -8.22910156 2.24389648 -6.7890625 1.97265625 C-5.91975098 1.81031494 -5.05043945 1.64797363 -4.15478516 1.48071289 C-1.96537634 1.0834101 -1.96537634 1.0834101 0 0 Z " fill="#24347F" transform="translate(154,156)"/>
<path d="M0 0 C4.98314383 0.39534167 7.67622118 2.98842764 11.125 6.3125 C11.91197266 7.04243164 11.91197266 7.04243164 12.71484375 7.78710938 C15.43656795 10.34690821 17.87890485 12.92075497 20 16 C19.34 16.66 18.68 17.32 18 18 C17.45472656 17.35933594 16.90945312 16.71867187 16.34765625 16.05859375 C11.80038672 10.84283674 7.25483436 6.34752923 1.65234375 2.27734375 C1.10707031 1.85582031 0.56179687 1.43429688 0 1 C0 0.67 0 0.34 0 0 Z " fill="#20307B" transform="translate(150,53)"/>
<path d="M0 0 C-2.11906755 2.35347041 -3.8579696 3.54964377 -6.8359375 4.60546875 C-7.57070312 4.86650391 -8.30546875 5.12753906 -9.0625 5.39648438 C-10.2071875 5.78803711 -10.2071875 5.78803711 -11.375 6.1875 C-12.50808594 6.59645508 -12.50808594 6.59645508 -13.6640625 7.01367188 C-17.55102545 8.36935213 -20.82231785 9.37449342 -25 9 C-24.01 8.67 -23.02 8.34 -22 8 C-22 7.34 -22 6.68 -22 6 C-21.02417969 5.73445312 -20.04835937 5.46890625 -19.04296875 5.1953125 C-17.75773414 4.83882407 -16.47258216 4.48203761 -15.1875 4.125 C-13.29064453 3.60292969 -13.29064453 3.60292969 -11.35546875 3.0703125 C-1.47925101 -0.07995951 -1.47925101 -0.07995951 0 0 Z " fill="#2C3B83" transform="translate(154,168)"/>
<path d="M0 0 C0.66 0.66 1.32 1.32 2 2 C1.60287907 6.32939681 -0.14924631 10.27139813 -1.8125 14.25 C-2.06064453 14.88679687 -2.30878906 15.52359375 -2.56445312 16.1796875 C-3.33203125 18.015625 -3.33203125 18.015625 -5 21 C-7.10424805 21.68652344 -7.10424805 21.68652344 -9 22 C-8.51789063 20.91460937 -8.03578125 19.82921875 -7.5390625 18.7109375 C-6.90090015 17.26568748 -6.26288723 15.82037147 -5.625 14.375 C-5.30789062 13.66214844 -4.99078125 12.94929687 -4.6640625 12.21484375 C-2.89403488 8.19540604 -1.31133626 4.19892519 0 0 Z " fill="#02327E" transform="translate(188,120)"/>
<path d="M0 0 C7.85496312 0.30803777 14.04059197 3.53090484 21 7 C20.67 8.32 20.34 9.64 20 11 C19.63777344 10.55914062 19.27554688 10.11828125 18.90234375 9.6640625 C16.3489017 7.43045611 13.73707817 6.54970203 10.5625 5.375 C9.42941406 4.94960938 8.29632813 4.52421875 7.12890625 4.0859375 C4.7509562 3.26063149 2.45298434 2.54242897 0 2 C0 1.34 0 0.68 0 0 Z " fill="#1E307B" transform="translate(134,33)"/>
<path d="M0 0 C4.95 1.98 4.95 1.98 10 4 C8.515 6.475 8.515 6.475 7 9 C3.17475764 7.549046 1.80909034 5.61818068 0 2 C0 1.34 0 0.68 0 0 Z " fill="#DFE6F1" transform="translate(143,41)"/>
<path d="M0 0 C-3.25102284 4.74107498 -7.10632366 7.20870403 -12 10 C-10.11164466 3.46338535 -10.11164466 3.46338535 -7 1 C-4.53721199 -0.231394 -2.7204945 -0.07159196 0 0 Z " fill="#E1E4EC" transform="translate(168,155)"/>
<path d="M0 0 C6.32743363 0.48672566 6.32743363 0.48672566 9.375 2.8125 C10.97163052 4.96181032 11.62496968 6.37478776 12 9 C7.09198451 7.51272258 3.59508707 4.55364515 0 1 C0 0.67 0 0.34 0 0 Z " fill="#DEE1EA" transform="translate(68,155)"/>
<path d="M0 0 C1.41702513 0.14230808 2.8336096 0.28900746 4.25 0.4375 C5.43335938 0.55931641 5.43335938 0.55931641 6.640625 0.68359375 C11.02156936 1.2711045 11.02156936 1.2711045 13 2 C14.25 5.0625 14.25 5.0625 15 8 C11.45756548 6.63408831 8.07372071 5.09068516 4.6875 3.375 C3.80449219 2.92898437 2.92148438 2.48296875 2.01171875 2.0234375 C1.34785156 1.68570313 0.68398437 1.34796875 0 1 C0 0.67 0 0.34 0 0 Z " fill="#1292E5" transform="translate(130,39)"/>
<path d="M0 0 C2.75026417 -0.05404449 5.49946203 -0.09369306 8.25 -0.125 C9.02730469 -0.14175781 9.80460937 -0.15851562 10.60546875 -0.17578125 C17.72431144 -0.23662606 17.72431144 -0.23662606 21 2 C19.35 2 17.7 2 16 2 C16 2.66 16 3.32 16 4 C13.36 4.33 10.72 4.66 8 5 C8 4.01 8 3.02 8 2 C5.36 1.67 2.72 1.34 0 1 C0 0.67 0 0.34 0 0 Z " fill="#0A65B3" transform="translate(111,30)"/>
<path d="M0 0 C7.57142857 4 7.57142857 4 10 8 C9.01 8.495 9.01 8.495 8 9 C1.4375 6.65625 1.4375 6.65625 -1 3 C-0.67 2.01 -0.34 1.02 0 0 Z " fill="#0B2875" transform="translate(157,42)"/>
<path d="M0 0 C-1.3125 2.9375 -1.3125 2.9375 -3 6 C-3.99 6.33 -4.98 6.66 -6 7 C-7.32 5.35 -8.64 3.7 -10 2 C-3.375 -1.125 -3.375 -1.125 0 0 Z " fill="#EBEFF5" transform="translate(93,43)"/>
<path d="M0 0 C1.32 0.99 2.64 1.98 4 3 C2.92598892 5.91517292 2.22189824 7.77810176 0 10 C-1 9 -1 9 -1.1328125 7.1875 C-1.13023438 6.465625 -1.12765625 5.74375 -1.125 5 C-1.12757812 4.278125 -1.13015625 3.55625 -1.1328125 2.8125 C-1 1 -1 1 0 0 Z " fill="#E2E8F0" transform="translate(48,108)"/>
<path d="M0 0 C2.6875 -0.375 2.6875 -0.375 6 0 C8.06398076 1.823983 9.39041053 3.72763839 11 6 C10.34 6.66 9.68 7.32 9 8 C7.49712782 6.85793642 5.99776716 5.71125043 4.5 4.5625 C3.6646875 3.92441406 2.829375 3.28632812 1.96875 2.62890625 C1.3190625 2.09136719 0.669375 1.55382813 0 1 C0 0.67 0 0.34 0 0 Z " fill="#253B81" transform="translate(163,50)"/>
<path d="M0 0 C0 2.97 0 5.94 0 9 C-0.99 8.67 -1.98 8.34 -3 8 C-4.1875 5.4375 -4.1875 5.4375 -5 3 C-2.25 0 -2.25 0 0 0 Z " fill="#E9EEF5" transform="translate(189,108)"/>
<path d="M0 0 C2.93200474 2.85276137 5.64315404 5.65079784 8 9 C5.03824877 8.38722388 3.61941217 7.74627478 1 6 C0.34 6 -0.32 6 -1 6 C-1.042721 4.33388095 -1.04063832 2.66617115 -1 1 C-0.67 0.67 -0.34 0.34 0 0 Z " fill="#072773" transform="translate(47,103)"/>
<path d="M0 0 C-0.25 1.875 -0.25 1.875 -1 4 C-2.31647119 4.69937532 -3.65022151 5.36729133 -5 6 C-5.33 6.99 -5.66 7.98 -6 9 C-6.99 8.34 -7.98 7.68 -9 7 C-7.88121617 5.82737096 -6.75476949 4.66204862 -5.625 3.5 C-4.68527344 2.52546875 -4.68527344 2.52546875 -3.7265625 1.53125 C-2 0 -2 0 0 0 Z " fill="#3A4789" transform="translate(77,59)"/>
<path d="M0 0 C-1 2 -1 2 -2.890625 2.8515625 C-10.71069182 5.41509434 -10.71069182 5.41509434 -15 5 C-10.48631832 1.18073088 -5.90250682 -0.34720628 0 0 Z " fill="#132E7B" transform="translate(100,38)"/>
<path d="M0 0 C1 3 1 3 0.00390625 5.26171875 C-0.47175781 6.06222656 -0.94742188 6.86273438 -1.4375 7.6875 C-2.14712891 8.89986328 -2.14712891 8.89986328 -2.87109375 10.13671875 C-3.24363281 10.75160156 -3.61617187 11.36648437 -4 12 C-4.66 12 -5.32 12 -6 12 C-4.68139111 7.38486888 -2.78644563 3.90102388 0 0 Z " fill="#162776" transform="translate(57,82)"/>
<path d="M0 0 C1.98 1.65 3.96 3.3 6 5 C5.67 5.66 5.34 6.32 5 7 C2.50638429 5.79618552 0.31856917 4.54571278 -2 3 C-2.66 4.32 -3.32 5.64 -4 7 C-4.33 6.01 -4.66 5.02 -5 4 C-4.67 3.34 -4.34 2.68 -4 2 C-2.68 2 -1.36 2 0 2 C0 1.34 0 0.68 0 0 Z " fill="#25377F" transform="translate(62,77)"/>
<path d="M0 0 C0 0.99 0 1.98 0 3 C-5.23255814 8 -5.23255814 8 -9 8 C-9 6 -9 6 -7.5390625 4.4921875 C-6.59160156 3.69167969 -6.59160156 3.69167969 -5.625 2.875 C-4.99851563 2.33617188 -4.37203125 1.79734375 -3.7265625 1.2421875 C-2 0 -2 0 0 0 Z " fill="#1D317C" transform="translate(176,77)"/>
<path d="M0 0 C0.66 0.66 1.32 1.32 2 2 C-0.64 4.31 -3.28 6.62 -6 9 C-6.33 8.01 -6.66 7.02 -7 6 C-4.69 4.02 -2.38 2.04 0 0 Z " fill="#21347D" transform="translate(84,52)"/>
<path d="M0 0 C0.33 0.66 0.66 1.32 1 2 C0 5 0 5 -3 7 C-5.1875 6.625 -5.1875 6.625 -7 6 C-6.01 6 -5.02 6 -4 6 C-4 5.34 -4 4.68 -4 4 C-4.66 3.67 -5.32 3.34 -6 3 C-4.02 2.01 -2.04 1.02 0 0 Z " fill="#0D539E" transform="translate(172,148)"/>
<path d="M0 0 C2.90802461 2.21928194 4.95312762 3.92969143 7 7 C7 7.99 7 8.98 7 10 C6.34 10 5.68 10 5 10 C3.7109375 8.57421875 3.7109375 8.57421875 2.375 6.6875 C1.92898437 6.07261719 1.48296875 5.45773438 1.0234375 4.82421875 C0 3 0 3 0 0 Z " fill="#172A77" transform="translate(173,56)"/>
<path d="M0 0 C0.66 0.33 1.32 0.66 2 1 C1.67 2.32 1.34 3.64 1 5 C-1.31 5.33 -3.62 5.66 -6 6 C-2.25 1.125 -2.25 1.125 0 0 Z " fill="#0A2774" transform="translate(74,45)"/>
<path d="M0 0 C-4.455 2.97 -4.455 2.97 -9 6 C-8 2 -8 2 -6.1875 0.1875 C-4 -1 -4 -1 0 0 Z " fill="#263880" transform="translate(166,161)"/>
<path d="M0 0 C0.66 0 1.32 0 2 0 C1.745504 1.48206495 1.47088238 2.96068615 1.1875 4.4375 C1.03667969 5.26121094 0.88585937 6.08492187 0.73046875 6.93359375 C0.48941406 7.61550781 0.24835938 8.29742187 0 9 C-0.99 9.33 -1.98 9.66 -3 10 C-2.69201674 8.51988629 -2.378482 7.04092675 -2.0625 5.5625 C-1.88847656 4.73878906 -1.71445313 3.91507813 -1.53515625 3.06640625 C-1 1 -1 1 0 0 Z " fill="#022F7A" transform="translate(162,141)"/>
<path d="M0 0 C5.78461538 4.43076923 5.78461538 4.43076923 6.875 7.3125 C6.936875 8.1478125 6.936875 8.1478125 7 9 C3.64564078 7.61198929 1.88709697 6.11371 0 3 C0 2.01 0 1.02 0 0 Z " fill="#022E7A" transform="translate(128,46)"/>
<path d="M0 0 C8.57142857 0.71428571 8.57142857 0.71428571 12 4 C3.42857143 3 3.42857143 3 0 2 C0 1.34 0 0.68 0 0 Z " fill="#0D2B79" transform="translate(134,33)"/>
<path d="M0 0 C-3.44450737 2.29633824 -5.93812283 2.54016485 -10 3 C-10 2.01 -10 1.02 -10 0 C-6.42355152 -1.2380014 -3.66305234 -0.74926071 0 0 Z " fill="#043E89" transform="translate(146,95)"/>
<path d="M0 0 C-3.03525486 2.02350324 -4.19426202 2.32124018 -7.6875 2.625 C-8.49574219 2.69976562 -9.30398437 2.77453125 -10.13671875 2.8515625 C-10.75160156 2.90054688 -11.36648437 2.94953125 -12 3 C-5.29411765 -1.47058824 -5.29411765 -1.47058824 0 0 Z " fill="#033481" transform="translate(155,92)"/>
<path d="M0 0 C0 0.99 0 1.98 0 3 C-3.63 2.67 -7.26 2.34 -11 2 C-11 1.67 -11 1.34 -11 1 C-7.26562152 0.12132271 -3.83225427 -0.08912219 0 0 Z " fill="#05438F" transform="translate(117,59)"/>
<path d="M0 0 C7.75 -0.125 7.75 -0.125 10 1 C10 1.66 10 2.32 10 3 C6.7 2.67 3.4 2.34 0 2 C0 1.34 0 0.68 0 0 Z " fill="#0F79C7" transform="translate(130,35)"/>
<path d="M0 0 C5.94 0.99 5.94 0.99 12 2 C12 2.99 12 3.98 12 5 C10.37247769 4.74476126 8.74796804 4.47025506 7.125 4.1875 C6.22007813 4.03667969 5.31515625 3.88585937 4.3828125 3.73046875 C2 3 2 3 0 0 Z " fill="#194F94" transform="translate(65,152)"/>
<path d="M0 0 C0.33 3.3 0.66 6.6 1 10 C0.67 9.34 0.34 8.68 0 8 C-0.66 8 -1.32 8 -2 8 C-2.33 5.69 -2.66 3.38 -3 1 C-1 0 -1 0 0 0 Z " fill="#304084" transform="translate(191,88)"/>
<path d="M0 0 C4.31392226 0.4793247 6.16569547 1.7457985 9 5 C8.34 5.66 7.68 6.32 7 7 C5.83040013 6.02433888 4.66438823 5.044375 3.5 4.0625 C2.8503125 3.51722656 2.200625 2.97195312 1.53125 2.41015625 C1.0259375 1.94480469 0.520625 1.47945312 0 1 C0 0.67 0 0.34 0 0 Z " fill="#26377F" transform="translate(150,53)"/>
<path d="M0 0 C1.32 0 2.64 0 4 0 C4.66 1.98 5.32 3.96 6 6 C3.5625 5.25 3.5625 5.25 1 4 C0.1875 1.875 0.1875 1.875 0 0 Z " fill="#159DF2" transform="translate(139,41)"/>
<path d="M0 0 C0.99 0.66 1.98 1.32 3 2 C2.67 2.33 2.34 2.66 2 3 C2.66 3.66 3.32 4.32 4 5 C1 6 1 6 -2 5 C-2 3.68 -2 2.36 -2 1 C-1.34 0.67 -0.68 0.34 0 0 Z " fill="#364A89" transform="translate(83,39)"/>
<path d="M0 0 C-1.29299694 2.88437779 -2.65941363 4.87219421 -5 7 C-5.66 6.34 -6.32 5.68 -7 5 C-2.25 0 -2.25 0 0 0 Z " fill="#1F327C" transform="translate(70,67)"/>
<path d="M0 0 C0.33 0 0.66 0 1 0 C0.25 6.75 0.25 6.75 -2 9 C-2 6.66666667 -2 4.33333333 -2 2 C-1.34 2 -0.68 2 0 2 C0 1.34 0 0.68 0 0 Z " fill="#0C2172" transform="translate(158,154)"/>
<path d="M0 0 C0.99 0.33 1.98 0.66 3 1 C2.67 2.98 2.34 4.96 2 7 C1.01 7 0.02 7 -1 7 C-0.67 4.69 -0.34 2.38 0 0 Z " fill="#033680" transform="translate(73,104)"/>
<path d="M0 0 C0.66 0 1.32 0 2 0 C2.99 1.98 3.98 3.96 5 6 C4.01 6.33 3.02 6.66 2 7 C1.01 5.02 0.02 3.04 -1 1 C-0.67 0.67 -0.34 0.34 0 0 Z " fill="#2B3B81" transform="translate(177,80)"/>
<path d="M0 0 C1.98 0 3.96 0 6 0 C6.33 1.32 6.66 2.64 7 4 C5.35 4 3.7 4 2 4 C2 3.01 2 2.02 2 1 C1.34 0.67 0.68 0.34 0 0 Z " fill="#022372" transform="translate(145,49)"/>
</svg>
